<?xml version="1.0" encoding="UTF-8" standalone="no"?>
<!-- Created with Inkscape (http://www.inkscape.org/) -->

<svg
   xmlns:dc="http://purl.org/dc/elements/1.1/"
   xmlns:cc="http://creativecommons.org/ns#"
   xmlns:rdf="http://www.w3.org/1999/02/22-rdf-syntax-ns#"
   xmlns:svg="http://www.w3.org/2000/svg"
   xmlns="http://www.w3.org/2000/svg"
   xmlns:sodipodi="http://sodipodi.sourceforge.net/DTD/sodipodi-0.dtd"
   xmlns:inkscape="http://www.inkscape.org/namespaces/inkscape"
   width="1200"
   height="800"
   id="svg3609"
   version="1.1"
   inkscape:version="0.48.5 r10040"
   sodipodi:docname="530.svg"
   inkscape:export-filename="/Users/bdharva/Dropbox/Personal/website/assets/work/graphics/530.png"
   inkscape:export-xdpi="90"
   inkscape:export-ydpi="90">
  <defs
     id="defs3611" />
  <sodipodi:namedview
     id="base"
     pagecolor="#ffffff"
     bordercolor="#666666"
     borderopacity="1.0"
     inkscape:pageopacity="0.0"
     inkscape:pageshadow="2"
     inkscape:zoom="0.93777778"
     inkscape:cx="600"
     inkscape:cy="400"
     inkscape:current-layer="layer1"
     inkscape:document-units="px"
     showgrid="false"
     inkscape:window-width="1440"
     inkscape:window-height="856"
     inkscape:window-x="0"
     inkscape:window-y="1"
     inkscape:window-maximized="1" />
  <metadata
     id="metadata3614">
    <rdf:RDF>
      <cc:Work
         rdf:about="">
        <dc:format>image/svg+xml</dc:format>
        <dc:type
           rdf:resource="http://purl.org/dc/dcmitype/StillImage" />
        <dc:title></dc:title>
      </cc:Work>
    </rdf:RDF>
  </metadata>
  <g
     id="layer1"
     inkscape:label="Layer 1"
     inkscape:groupmode="layer"
     transform="translate(0,32)">
    <rect
       style="fill:#f2f2f2;fill-opacity:1;stroke:none"
       id="rect3783"
       width="1300"
       height="900"
       x="-50"
       y="-82" />
    <g
       transform="matrix(16,0,0,16,88,-464)"
       id="g9847-0-0-9">
      <path
         inkscape:connector-curvature="0"
         id="path8478-0-4-2-7-3-2"
         d="m 16,44 0,2 0,7 c 0,3.865993 3.134007,7 7,7 1.722517,0 3.280575,-0.624386 4.5,-1.65625 C 28.719425,59.375614 30.277483,60 32,60 33.722517,60 35.280575,59.375614 36.5,58.34375 37.719425,59.375614 39.277483,60 41,60 c 3.865993,0 7,-3.134007 7,-7 l 0,-9 -30,0 -2,0 z m 2,2 28,0 0,7 c 0,2.761424 -2.238576,5 -5,5 -1.994942,0 -3.69772,-1.18524 -4.5,-2.875 C 35.69772,56.81476 33.994942,58 32,58 30.005058,58 28.30228,56.81476 27.5,55.125 26.69772,56.81476 24.994942,58 23,58 20.238576,58 18,55.761424 18,53 l 0,-7 z"
         style="fill:#43a6bd;fill-opacity:1;stroke:none" />
      <path
         inkscape:connector-curvature="0"
         id="rect9824-3-1-2"
         d="m 18,46 0,7 c 0,2.761424 2.238576,5 5,5 1.994942,0 3.69772,-1.18524 4.5,-2.875 0.80228,1.68976 2.505058,2.875 4.5,2.875 1.994942,0 3.69772,-1.18524 4.5,-2.875 0.80228,1.68976 2.505058,2.875 4.5,2.875 2.761424,0 5,-2.238576 5,-5 l 0,-7 -28,0 z"
         style="fill:#ffffff;fill-opacity:1;stroke:none" />
      <path
         inkscape:connector-curvature="0"
         id="path8478-94-7-06-3"
         d="m 18.988155,47.000645 0,2 0,2 0,1 6,0 0,1 c 0,1.104569 -0.895431,2 -2,2 -1.104569,0 -2,-0.895431 -2,-2 l -2,0 c 0,2.209139 1.790861,4 4,4 2.209139,0 4,-1.790861 4,-4 l 0,-3 -6,0 0,-1 6,0 0,-2 -6,0 -2,0 z m 9,0 0,2 6,0 0,1 -6,0 0,2 6,0 0,1 c 0,1.104569 -0.895431,2 -2,2 -1.104569,0 -2,-0.895431 -2,-2 l -2,0 c 0,2.209139 1.790861,4 4,4 2.209139,0 4,-1.790861 4,-4 l 0,-2 0,-1 0,-3 -8,0 z m 9,0 0,2 0,4 c 0,2.209139 1.790861,4 4,4 2.209139,0 4,-1.790861 4,-4 l 0,-5 0,-1 -8,0 z m 2,2 4,0 0,4 c 0,1.104569 -0.895431,2 -2,2 -1.104569,0 -2,-0.895431 -2,-2 l 0,-4 z"
         style="fill:#c83737;fill-opacity:1;stroke:none" />
    </g>
  </g>
</svg>
