<?xml version="1.0" encoding="UTF-8" standalone="no"?>
<!-- Created with Inkscape (http://www.inkscape.org/) -->

<svg
   xmlns:dc="http://purl.org/dc/elements/1.1/"
   xmlns:cc="http://creativecommons.org/ns#"
   xmlns:rdf="http://www.w3.org/1999/02/22-rdf-syntax-ns#"
   xmlns:svg="http://www.w3.org/2000/svg"
   xmlns="http://www.w3.org/2000/svg"
   xmlns:sodipodi="http://sodipodi.sourceforge.net/DTD/sodipodi-0.dtd"
   xmlns:inkscape="http://www.inkscape.org/namespaces/inkscape"
   width="1200"
   height="800"
   id="svg3609"
   version="1.1"
   inkscape:version="0.48.5 r10040"
   sodipodi:docname="birddog01.svg"
   inkscape:export-filename="/Users/bdharva/Dropbox/Personal/website/assets/work/graphics/birddog01.png"
   inkscape:export-xdpi="90"
   inkscape:export-ydpi="90">
  <defs
     id="defs3611" />
  <sodipodi:namedview
     id="base"
     pagecolor="#ffffff"
     bordercolor="#666666"
     borderopacity="1.0"
     inkscape:pageopacity="0.0"
     inkscape:pageshadow="2"
     inkscape:zoom="0.30210894"
     inkscape:cx="388.57142"
     inkscape:cy="443.90978"
     inkscape:current-layer="layer1"
     inkscape:document-units="px"
     showgrid="false"
     inkscape:window-width="1440"
     inkscape:window-height="856"
     inkscape:window-x="0"
     inkscape:window-y="1"
     inkscape:window-maximized="1" />
  <metadata
     id="metadata3614">
    <rdf:RDF>
      <cc:Work
         rdf:about="">
        <dc:format>image/svg+xml</dc:format>
        <dc:type
           rdf:resource="http://purl.org/dc/dcmitype/StillImage" />
        <dc:title></dc:title>
      </cc:Work>
    </rdf:RDF>
  </metadata>
  <g
     id="layer1"
     inkscape:label="Layer 1"
     inkscape:groupmode="layer"
     transform="translate(0,32)">
    <rect
       style="fill:#ff9955;fill-opacity:1;stroke:none"
       id="rect3783"
       width="1200"
       height="800"
       x="0"
       y="-32" />
    <g
       transform="matrix(2.4797183,0,0,2.4797183,2489.7313,-1890.9272)"
       id="g10959"
       style="fill:#ffffff;fill-opacity:1">
      <path
         style="fill:#ffffff;fill-opacity:1;stroke:none"
         d="m -694.71625,929.5075 0,37.8125 60.3125,0 0,-37.8125 -60.3125,0 z m 1.8125,1.8125 56.6875,0 0,34.1875 -56.6875,0 0,-34.1875 z m 0.90625,0.90625 0,32.375 27,0 0,-32.375 -27,0 z m 27.875,0 0,32.375 27,0 0,-32.375 -27,0 z m -27,0.875 25.21875,0 0,5.40625 -25.21875,0 0,-5.40625 z m 27.90625,0 25.21875,0 0,30.625 -25.21875,0 0,-30.625 z m -27.90625,6.3125 25.21875,0 0,2.6875 -25.21875,0 0,-2.6875 z m 46.46875,1.25 c -1.53338,0 -2.78125,1.24787 -2.78125,2.78125 0,1.53338 1.24787,2.78125 2.78125,2.78125 1.53338,0 2.78125,-1.24787 2.78125,-2.78125 0,-1.53338 -1.24787,-2.78125 -2.78125,-2.78125 z m -46.46875,2.34375 25.21875,0 0,2.6875 -25.21875,0 0,-2.6875 z m 38.375,3.21875 -9.5625,16.53125 11.9375,0 7.15625,0 4.3125,0 -5.75,-9.90625 -2.125,3.71875 -5.96875,-10.34375 z m -38.375,0.375 25.21875,0 0,2.71875 -25.21875,0 0,-2.71875 z m 0,3.59375 25.21875,0 0,2.71875 -25.21875,0 0,-2.71875 z m 0,3.625 25.21875,0 0,2.6875 -25.21875,0 0,-2.6875 z m 0,3.59375 25.21875,0 0,2.6875 -25.21875,0 0,-2.6875 z m 0,3.59375 25.21875,0 0,2.6875 -25.21875,0 0,-2.6875 z"
         id="rect4985-50"
         inkscape:connector-curvature="0" />
      <path
         style="fill:#ffffff;fill-opacity:1;stroke:none"
         d="m -860.99695,880.00745 c -1.2465,0 -2.25,1.0035 -2.25,2.25 l 0,33.31255 c 0,1.2459 1.0035,2.25 2.25,2.25 l 21.625,0 c 1.2465,0 2.25,-1.0038 2.25,-2.25 l 0,-33.31255 c 0,-1.2465 -1.0035,-2.25 -2.25,-2.25 l -21.625,0 z m 9.46875,2.25 2.6875,0 c 0.2493,0 0.46875,0.21945 0.46875,0.46875 0,0.2493 -0.21945,0.4375 -0.46875,0.4375 l -2.6875,0 c -0.2493,0 -0.46875,-0.1882 -0.46875,-0.4375 0,-0.2493 0.21945,-0.46875 0.46875,-0.46875 z m -9.90625,3.125 22.5,0 0,26.99995 -22.5,0 0,-26.99995 z m 0.90625,0.90625 0,25.2187 20.6875,0 0,-25.2187 -20.6875,0 z m 0.90625,0.9375 18.875,0 0,5.375 -18.875,0 0,-5.375 z m 0,6.2812 18.875,0 0,2.7188 -18.875,0 0,-2.7188 z m 0,3.5938 18.875,0 0,2.7188 -18.875,0 0,-2.7188 z m 0,3.625 9,0 0,2.6875 -9,0 0,-2.6875 z m 9.875,0 9,0 0,9.875 -9,0 0,-9.875 z m 6.34375,2.1562 c -0.47181,0 -0.84375,0.4032 -0.84375,0.875 0,0.4719 0.37194,0.8438 0.84375,0.8438 0.47181,0 0.84375,-0.3719 0.84375,-0.8438 0,-0.4718 -0.37194,-0.875 -0.84375,-0.875 z m -16.21875,1.4376 9,0 0,2.6874 -9,0 0,-2.6874 z m 13.71875,0.2812 -2.9375,5.0938 3.6875,0 2.1875,0 1.34375,0 -1.78125,-3.0626 -0.65625,1.1563 -1.84375,-3.1875 z m -13.71875,3.3125 9,0 0,2.6875 -9,0 0,-2.6875 z m 9.4375,5.8437 c 0.74558,0 1.34375,0.5982 1.34375,1.3438 0,0.7456 -0.59817,1.375 -1.34375,1.375 -0.74558,0 -1.34375,-0.6294 -1.34375,-1.375 0,-0.7456 0.59817,-1.3436 1.34375,-1.3438 z"
         id="rect4985-5-9"
         inkscape:connector-curvature="0" />
      <path
         style="fill:#ffffff;fill-opacity:1;stroke:none"
         d="m -881.68445,886.32 c -1.2465,0 -2.25,1.0035 -2.25,2.25 l 0,27 c 0,1.2465 1.0035,2.25 2.25,2.25 l 11.6875,0 c 1.2465,0 2.25,-1.0035 2.25,-2.25 l 0,-27 c 0,-1.2465 -1.0035,-2.25 -2.25,-2.25 l -11.6875,0 z m 4.5,2.2812 2.6875,0 c 0.2493,0 0.46875,0.2195 0.46875,0.4688 0,0.2493 -0.21945,0.4375 -0.46875,0.4375 l -2.6875,0 c -0.2493,0 -0.46875,-0.1882 -0.46875,-0.4375 0,-0.2493 0.21945,-0.4688 0.46875,-0.4688 z m -4.96875,3.125 12.625,0 0,20.6876 -12.625,0 0,-20.6876 z m 0.90625,0.875 0,18.9063 10.8125,0 0,-18.9063 -10.8125,0 z m 0.90625,0.9376 9,0 0,2.6874 -9,0 0,-2.6874 z m 0,3.5937 9,0 0,2.6875 -9,0 0,-2.6875 z m 0,3.5937 9,0 0,9.9063 -9,0 0,-9.9063 z m 6.34375,2.1876 c -0.47181,0 -0.875,0.4031 -0.875,0.875 0,0.4718 0.40319,0.8437 0.875,0.8437 0.47181,0 0.84375,-0.3719 0.84375,-0.8437 0,-0.4719 -0.37194,-0.875 -0.84375,-0.875 z m -2.5,1.7187 -2.9375,5.0937 3.65625,0 2.21875,0 1.3125,0 -1.75,-3.0624 -0.65625,1.1562 -1.84375,-3.1875 z m 0.65625,9.1563 c 0.74558,0 1.34375,0.5981 1.34375,1.3437 0,0.7456 -0.59817,1.3437 -1.34375,1.3437 -0.74558,0 -1.34375,-0.5981 -1.34375,-1.3437 0,-0.7456 0.59817,-1.3439 1.34375,-1.3437 z"
         id="rect4985-5-4-0"
         inkscape:connector-curvature="0" />
      <path
         style="fill:#ffffff;fill-opacity:1;stroke:none"
         d="m -809.4298,872.82 c -0.85474,0 -1.5625,0.70776 -1.5625,1.5625 l 0,39.84375 -7.1875,0 -1.28125,0 c -0.0356,0 -0.0625,0.0269 -0.0625,0.0625 l 0,1.03125 c -0.0179,0.088 0,0.15651 0,0.25 l 0,0.40625 0,0.5 c 0,0.7479 0.59585,1.34375 1.34375,1.34375 l 74.6875,0 c 0.7479,0 1.34375,-0.59585 1.34375,-1.34375 l 0,-0.5 0,-0.40625 0,-1.28125 c 0,-0.0356 -0.0269,-0.0625 -0.0625,-0.0625 l -1.28125,0 -7.1875,0 0,-39.84375 c 0,-0.85474 -0.70776,-1.5625 -1.5625,-1.5625 l -57.1875,0 z m 28.59375,0.875 c 0.49706,0 0.90625,0.40919 0.90625,0.90625 0,0.49706 -0.40919,0.875 -0.90625,0.875 -0.49706,0 -0.90625,-0.37794 -0.90625,-0.875 0,-0.49706 0.40919,-0.90625 0.90625,-0.90625 z m -28.34375,2.75 56.6875,0 0,37.78125 -56.6875,0 0,-37.78125 z m 0.90625,0.90625 0,36 54.875,0 0,-36 -54.875,0 z m 0.875,0.84375 53.125,0 0,5.40625 -53.125,0 0,-5.40625 z m 0,6.34375 26.125,0 0,2.6875 -26.125,0 0,-2.6875 z m 27,0 26.125,0 0,27.90625 -26.125,0 0,-27.90625 z m -27,3.59375 26.125,0 0,2.6875 -26.125,0 0,-2.6875 z m 46.25,0.5 c -1.59235,0 -2.875,1.28265 -2.875,2.875 0,1.59235 1.28265,2.875 2.875,2.875 1.59235,0 2.875,-1.28265 2.875,-2.875 0,-1.59235 -1.28265,-2.875 -2.875,-2.875 z m -46.25,3.09375 26.125,0 0,2.71875 -26.125,0 0,-2.71875 z m 37.84375,2.65625 -9.9375,17.1875 19.84375,0 4.46875,0 -5.96875,-10.3125 -2.21875,3.84375 -6.1875,-10.71875 z m -37.84375,0.9375 26.125,0 0,2.71875 -26.125,0 0,-2.71875 z m 0,3.625 26.125,0 0,2.6875 -26.125,0 0,-2.6875 z m 0,3.59375 26.125,0 0,2.6875 -26.125,0 0,-2.6875 z m 0,3.59375 26.125,0 0,2.6875 -26.125,0 0,-2.6875 z m 0,3.59375 26.125,0 0,2.71875 -26.125,0 0,-2.71875 z"
         id="rect4985-52-0"
         inkscape:connector-curvature="0" />
      <path
         style="fill:#ffffff;fill-opacity:1;stroke:none"
         d="m -883.93445,805.10241 0,46.8125 46.8125,0 0,-46.8125 -46.8125,0 z m 4.5,4.5 37.8125,0 0,37.8125 -37.8125,0 0,-37.8125 z m 2.71875,2.71875 0,32.375 32.375,0 0,-32.375 -32.375,0 z m 0.875,0.875 30.625,0 0,30.625 -30.625,0 0,-30.625 z m 22.65625,2.53125 c -1.88723,0 -3.40625,1.55027 -3.40625,3.4375 0,1.88723 1.51902,3.40625 3.40625,3.40625 1.88723,0 3.40625,-1.51902 3.40625,-3.40625 0,-1.88723 -1.51902,-3.4375 -3.40625,-3.4375 z m -10,6.84375 -11.75,20.375 14.6875,0 8.8125,0 5.3125,0 -7.0625,-12.21875 -2.65625,4.59375 -7.34375,-12.75 z"
         id="rect4985-52-17-0"
         inkscape:connector-curvature="0" />
      <rect
         style="fill:#ffffff;fill-opacity:1;stroke:none"
         id="rect10126-1"
         width="92.699997"
         height="4.5"
         x="924.12"
         y="730.44"
         transform="matrix(0,1,-1,0,0,0)" />
      <path
         style="fill:#ffffff;fill-opacity:1;stroke:none"
         d="m 165,1338.875 0,35.3125 106,0 0,-35.3125 -106,0 z m 37.46875,6.125 31.09375,0 c 1.17472,0 2.125,0.919 2.125,2.0938 0,1.1747 -0.95028,2.125 -2.125,2.125 l -31.09375,0 c -1.17472,0 -2.125,-0.9503 -2.125,-2.125 0,-1.1748 0.95028,-2.0938 2.125,-2.0938 z"
         transform="matrix(0.63665999,0,0,0.63665999,-999.32208,141.90009)"
         id="rect10126-1-8"
         inkscape:connector-curvature="0" />
      <rect
         style="fill:#ffffff;fill-opacity:1;stroke:none"
         id="rect10126-1-0"
         width="181.53"
         height="4.5"
         x="-903.23999"
         y="918.71997" />
      <path
         style="fill:#ffffff;fill-opacity:1;stroke:none"
         d="m 165,1302.125 0,35.3438 106,0 0,-35.3438 -106,0 z m 37.46875,6.125 31.09375,0 c 1.17472,0 2.125,0.9503 2.125,2.125 0,1.1747 -0.95028,2.125 -2.125,2.125 l -31.09375,0 c -1.17472,0 -2.125,-0.9503 -2.125,-2.125 0,-1.1747 0.95028,-2.125 2.125,-2.125 z"
         transform="matrix(0.63665999,0,0,0.63665999,-999.32208,141.90009)"
         id="rect10126-1-8-3"
         inkscape:connector-curvature="0" />
      <path
         style="fill:#ffffff;fill-opacity:1;stroke:none"
         d="m 165,1265.375 0,35.3438 106,0 0,-35.3438 -106,0 z m 37.46875,6.125 31.09375,0 c 1.17472,0 2.125,0.9503 2.125,2.125 0,1.1747 -0.95028,2.125 -2.125,2.125 l -31.09375,0 c -1.17472,0 -2.125,-0.9503 -2.125,-2.125 0,-1.1747 0.95028,-2.125 2.125,-2.125 z"
         transform="matrix(0.63665999,0,0,0.63665999,-999.32208,141.90009)"
         id="rect10126-1-8-9"
         inkscape:connector-curvature="0" />
      <path
         style="fill:#ffffff;fill-opacity:1;stroke:none"
         d="m 165,1228.625 0,35.3438 106,0 0,-35.3438 -106,0 z m 37.46875,6.125 31.09375,0 c 1.17472,0 2.125,0.9503 2.125,2.125 0,1.1747 -0.95028,2.125 -2.125,2.125 l -31.09375,0 c -1.17472,0 -2.125,-0.9503 -2.125,-2.125 0,-1.1747 0.95028,-2.125 2.125,-2.125 z"
         transform="matrix(0.63665999,0,0,0.63665999,-999.32208,141.90009)"
         id="rect10126-1-8-5"
         inkscape:connector-curvature="0" />
      <path
         style="fill:#ffffff;fill-opacity:1;stroke:none"
         d="m 272.5,1228.625 0,35.3438 141.34375,0 0,-35.3438 -141.34375,0 z m 55.125,6.125 31.09375,0 c 1.17472,0 2.125,0.9503 2.125,2.125 0,1.1747 -0.95028,2.125 -2.125,2.125 l -31.09375,0 c -1.17472,0 -2.125,-0.9503 -2.125,-2.125 0,-1.1747 0.95028,-2.125 2.125,-2.125 z"
         transform="matrix(0.63665999,0,0,0.63665999,-999.32208,141.90009)"
         id="rect10126-1-8-5-6"
         inkscape:connector-curvature="0" />
      <rect
         style="fill:#ffffff;fill-opacity:1;stroke:none"
         id="rect10126-1-09"
         width="92.699997"
         height="4.5"
         x="924.12"
         y="699.21002"
         transform="matrix(0,1,-1,0,0,0)" />
      <rect
         style="fill:#ffffff;fill-opacity:1;stroke:none"
         id="rect10126-1-0-6"
         width="67.5"
         height="4.5"
         x="-698.31"
         y="1012.32" />
      <rect
         style="fill:#ffffff;fill-opacity:1;stroke:none"
         id="rect10126-1-09-2"
         width="92.699997"
         height="4.5"
         x="924.12"
         y="625.40997"
         transform="matrix(0,1,-1,0,0,0)" />
      <rect
         style="fill:#ffffff;fill-opacity:1;stroke:none"
         id="rect10126-1-0-6-0"
         width="67.5"
         height="4.5"
         x="-698.31"
         y="968.21997" />
      <rect
         style="fill:#ffffff;fill-opacity:1;stroke:none"
         id="rect10126-1-0-6-6"
         width="67.5"
         height="4.5"
         x="-698.31"
         y="924.12" />
      <rect
         style="fill:#ffffff;fill-opacity:1;stroke:none"
         id="rect10126-1-0-6-6-7"
         width="87.300003"
         height="4.5"
         x="-708.21002"
         y="918.71997" />
      <rect
         style="fill:#ffffff;fill-opacity:1;stroke:none"
         id="rect10126-1-09-2-8"
         width="34.550629"
         height="9.296689"
         x="976.86938"
         y="689.01331"
         transform="matrix(0,1,-1,0,0,0)" />
      <rect
         style="fill:#ffffff;fill-opacity:1;stroke:none"
         id="rect10126-1-09-2-8-8"
         width="34.550629"
         height="9.296689"
         x="923.1275"
         y="744.53101"
         transform="matrix(0.07485641,0.99719432,-0.99719432,0.07485641,0,0)" />
      <rect
         style="fill:#ffffff;fill-opacity:1;stroke:none"
         id="rect10126-1-09-2-8-4"
         width="27.278234"
         height="4.6547337"
         x="984.14178"
         y="683.48462"
         transform="matrix(0,1,-1,0,0,0)" />
      <rect
         style="fill:#ffffff;fill-opacity:1;stroke:none"
         id="rect10126-1-09-2-8-45"
         width="32.539116"
         height="6.9757109"
         x="1018.6794"
         y="564.41321"
         transform="matrix(-0.06640249,0.99779292,-0.99779292,-0.06640249,0,0)" />
      <rect
         style="fill:#ffffff;fill-opacity:1;stroke:none"
         id="rect10126-1-09-2-8-4-7"
         width="27.278234"
         height="4.6547337"
         x="984.14178"
         y="665.22504"
         transform="matrix(0,1,-1,0,0,0)" />
      <rect
         style="fill:#ffffff;fill-opacity:1;stroke:none"
         id="rect10126-1-09-2-8-4-1"
         width="31.920187"
         height="4.6547337"
         x="1009.4412"
         y="611.34528"
         transform="matrix(-0.04708673,0.9988908,-0.9988908,-0.04708673,0,0)" />
      <rect
         style="fill:#ffffff;fill-opacity:1;stroke:none"
         id="rect10126-1-09-2-8-4-9"
         width="27.278234"
         height="4.6547337"
         x="984.14178"
         y="652.6698"
         transform="matrix(0,1,-1,0,0,0)" />
      <rect
         style="fill:#ffffff;fill-opacity:1;stroke:none"
         id="rect10126-1-09-2-8-4-0"
         width="27.278234"
         height="4.6547337"
         x="984.14178"
         y="647.14111"
         transform="matrix(0,1,-1,0,0,0)" />
      <rect
         style="fill:#ffffff;fill-opacity:1;stroke:none"
         id="rect10126-1-09-2-8-4-0-8"
         width="32.384384"
         height="4.6547337"
         x="962.60431"
         y="665.85602"
         transform="matrix(0.02496827,0.99968824,-0.99968824,0.02496827,0,0)" />
      <rect
         style="fill:#ffffff;fill-opacity:1;stroke:none"
         id="rect10126-1-0-6-6-3"
         width="67.5"
         height="4.5"
         x="-698.31"
         y="893.30243" />
      <rect
         style="fill:#ffffff;fill-opacity:1;stroke:none"
         id="rect10126-1-0-6-6-3-6"
         width="67.5"
         height="4.5"
         x="-698.31"
         y="805.10242" />
      <rect
         style="fill:#ffffff;fill-opacity:1;stroke:none"
         id="rect10126-1-09-3"
         width="92.699997"
         height="4.5"
         x="805.10242"
         y="693.81"
         transform="matrix(0,1,-1,0,0,0)" />
      <rect
         style="fill:#ffffff;fill-opacity:1;stroke:none"
         id="rect10126-1-09-24"
         width="92.699997"
         height="4.5"
         x="805.10242"
         y="630.81"
         transform="matrix(0,1,-1,0,0,0)" />
      <rect
         style="fill:#ffffff;fill-opacity:1;stroke:none"
         id="rect10126-1-09-24-8"
         width="92.699997"
         height="2.7"
         x="805.10242"
         y="663.21002"
         transform="matrix(0,1,-1,0,0,0)" />
      <rect
         style="fill:#ffffff;fill-opacity:1;stroke:none"
         id="rect10126-1-0-6-6-3-6-2"
         width="67.5"
         height="2.7"
         x="-698.31"
         y="850.10242" />
      <path
         inkscape:connector-curvature="0"
         style="fill:#ffffff;fill-opacity:1;stroke:none"
         d="m -651.3125,818.90625 c -5.47735,0 -9.96875,4.39765 -9.96875,9.875 0,5.47736 4.4914,9.875 9.96875,9.875 5.47736,0 9.90625,-4.39764 9.90625,-9.875 0,-5.47735 -4.42889,-9.875 -9.90625,-9.875 z m -29.03125,19.75 -6.0625,10.53125 12.125,0 -6.0625,-10.53125 z m -6.59375,11.4375 -1.5625,2.71875 16.3125,0 -1.5625,-2.71875 -13.1875,0 z m -2.0625,3.59375 -3.90625,6.78125 0,31.9375 26.09375,0 0,-30.25 -4.875,-8.46875 -17.3125,0 z m 37.6875,8.65625 -7.71875,13.34375 -3.28125,-5.6875 0,22.40625 26.09375,0 0,-3.9375 -15.09375,-26.125 z m -14.59375,1.40625 0,28.65625 2.6875,0 0,-24 -2.6875,-4.65625 z"
         id="path6769-0-8" />
    </g>
  </g>
</svg>
