<?xml version="1.0" encoding="UTF-8" standalone="no"?>
<!-- Created with Inkscape (http://www.inkscape.org/) -->

<svg
   xmlns:dc="http://purl.org/dc/elements/1.1/"
   xmlns:cc="http://creativecommons.org/ns#"
   xmlns:rdf="http://www.w3.org/1999/02/22-rdf-syntax-ns#"
   xmlns:svg="http://www.w3.org/2000/svg"
   xmlns="http://www.w3.org/2000/svg"
   xmlns:sodipodi="http://sodipodi.sourceforge.net/DTD/sodipodi-0.dtd"
   xmlns:inkscape="http://www.inkscape.org/namespaces/inkscape"
   width="1200"
   height="800"
   id="svg3609"
   version="1.1"
   inkscape:version="0.48.5 r10040"
   sodipodi:docname="yip.svg"
   inkscape:export-filename="/Users/bdharva/Dropbox/Personal/website/assets/work/graphics/yip.png"
   inkscape:export-xdpi="90"
   inkscape:export-ydpi="90">
  <defs
     id="defs3611" />
  <sodipodi:namedview
     id="base"
     pagecolor="#ffffff"
     bordercolor="#666666"
     borderopacity="1.0"
     inkscape:pageopacity="0.0"
     inkscape:pageshadow="2"
     inkscape:zoom="1.055"
     inkscape:cx="481.04265"
     inkscape:cy="400"
     inkscape:current-layer="layer1"
     inkscape:document-units="px"
     showgrid="false"
     inkscape:window-width="1440"
     inkscape:window-height="856"
     inkscape:window-x="0"
     inkscape:window-y="1"
     inkscape:window-maximized="1" />
  <metadata
     id="metadata3614">
    <rdf:RDF>
      <cc:Work
         rdf:about="">
        <dc:format>image/svg+xml</dc:format>
        <dc:type
           rdf:resource="http://purl.org/dc/dcmitype/StillImage" />
        <dc:title></dc:title>
      </cc:Work>
    </rdf:RDF>
  </metadata>
  <g
     id="layer1"
     inkscape:label="Layer 1"
     inkscape:groupmode="layer"
     transform="translate(0,32)">
    <rect
       style="fill:#f2f2f2;fill-opacity:1;stroke:none"
       id="rect3783-0"
       width="1300"
       height="900"
       x="-50"
       y="-82" />
    <g
       id="g7532"
       transform="matrix(4,0,0,4,-1747.0502,-1272.1062)">
      <rect
         y="335.02655"
         x="589.76257"
         height="72"
         width="72"
         id="rect2985-2"
         style="fill:#5acdc7;fill-opacity:1;stroke:none" />
      <g
         transform="matrix(0.70710678,-0.70710678,0.70710678,0.70710678,55.648837,193.90284)"
         id="g3983">
        <rect
           style="fill:#00aa88;fill-opacity:1;stroke:none"
           id="rect2987-5"
           width="3"
           height="18"
           x="487.89191"
           y="172.15187"
           transform="matrix(0.70710678,0.70710678,-0.70710678,0.70710678,0,0)" />
        <path
           sodipodi:type="arc"
           style="fill:#00aa88;fill-opacity:1;stroke:none"
           id="path3800"
           sodipodi:cx="235.35542"
           sodipodi:cy="465.57303"
           sodipodi:rx="7.3192773"
           sodipodi:ry="7.3192773"
           d="m 228.03615,465.57303 c 0,-4.04233 3.27695,-7.31928 7.31927,-7.31928 4.04233,0 7.31928,3.27695 7.31928,7.31928 l -7.31928,0 z"
           sodipodi:start="3.1415927"
           sodipodi:end="6.2831853"
           transform="matrix(0.77287061,0.77287061,-0.77287061,0.77287061,406.84718,-69.348716)" />
        <path
           sodipodi:type="arc"
           style="fill:#f0f0f0;fill-opacity:1;stroke:none"
           id="path3800-6"
           sodipodi:cx="235.35542"
           sodipodi:cy="465.57303"
           sodipodi:rx="7.3192773"
           sodipodi:ry="7.3192773"
           d="m 228.03615,465.57303 c 0,-4.04233 3.27695,-7.31928 7.31927,-7.31928 4.04233,0 7.31928,3.27695 7.31928,7.31928 l -7.31928,0 z"
           sodipodi:start="3.1415927"
           sodipodi:end="6.2831853"
           transform="matrix(0.48304413,0.48304413,-0.48304413,0.48304413,340.12401,133.79891)" />
        <g
           id="g3856"
           transform="matrix(0.70710678,0.70710678,-0.70710678,0.70710678,396.25652,-14.82733)"
           style="fill:#00aa88;fill-opacity:1">
          <path
             sodipodi:end="2.3561945"
             sodipodi:start="0"
             transform="matrix(1.0930041,0,0,1.0930041,-31.063717,-44.041167)"
             d="m 242.6747,465.57303 c 0,4.04232 -3.27695,7.31928 -7.31928,7.31928 -1.94119,0 -3.80288,-0.77114 -5.17551,-2.14377 l 5.17551,-5.17551 z"
             sodipodi:ry="7.3192773"
             sodipodi:rx="7.3192773"
             sodipodi:cy="465.57303"
             sodipodi:cx="235.35542"
             id="path3800-0"
             style="fill:#00aa88;fill-opacity:1;stroke:none"
             sodipodi:type="arc" />
          <path
             sodipodi:end="2.3561945"
             sodipodi:start="0"
             transform="matrix(0.68312756,0,0,0.68312756,65.402949,146.78629)"
             d="m 242.6747,465.57303 c 0,4.04232 -3.27695,7.31928 -7.31928,7.31928 -1.94119,0 -3.80288,-0.77114 -5.17551,-2.14377 l 5.17551,-5.17551 z"
             sodipodi:ry="7.3192773"
             sodipodi:rx="7.3192773"
             sodipodi:cy="465.57303"
             sodipodi:cx="235.35542"
             id="path3800-6-1"
             style="fill:#f0f0f0;fill-opacity:1;stroke:none"
             sodipodi:type="arc" />
        </g>
        <rect
           style="fill:#00aa88;fill-opacity:1;stroke:none"
           id="rect2987-5-2"
           width="3"
           height="14"
           x="219.50453"
           y="459.79248" />
        <rect
           style="fill:#f0f0f0;fill-opacity:1;stroke:none"
           id="rect2987-5-8"
           width="1"
           height="8.9524412"
           x="490.89191"
           y="174.15187"
           transform="matrix(0.70710678,0.70710678,-0.70710678,0.70710678,0,0)" />
        <rect
           style="fill:#f0f0f0;fill-opacity:1;stroke:none"
           id="rect2987-5-8-7"
           width="1"
           height="18"
           x="486.89191"
           y="168.15187"
           transform="matrix(0.70710678,0.70710678,-0.70710678,0.70710678,0,0)" />
        <g
           id="g4049">
          <path
             inkscape:connector-curvature="0"
             id="path3800-7"
             transform="matrix(0.70710678,0.70710678,-0.70710678,0.70710678,397.73307,-21.142295)"
             d="m 222.25,462.6875 -2.125,2.125 c 0.93768,0.93768 1.46875,2.20517 1.46875,3.53125 l 3,0 c 0,-2.12173 -0.84346,-4.15596 -2.34375,-5.65625 z"
             style="fill:#00aa88;fill-opacity:1;stroke:none" />
        </g>
        <rect
           style="fill:#00aa88;fill-opacity:1;stroke:none"
           id="rect2987-5-27"
           width="3"
           height="2"
           x="500.89191"
           y="172.15187"
           transform="matrix(0.70710678,0.70710678,-0.70710678,0.70710678,0,0)" />
        <rect
           transform="matrix(-0.70710678,0.70710678,-0.70710678,-0.70710678,0,0)"
           style="fill:#00aa88;fill-opacity:1;stroke:none"
           id="rect2987-5-0"
           width="3"
           height="9"
           x="187.15187"
           y="-493.89191" />
        <rect
           style="fill:#00aa88;fill-opacity:1;stroke:none"
           id="rect2987-5-2-7"
           width="3"
           height="2"
           x="224.72636"
           y="461.18588" />
        <rect
           style="fill:#00aa88;fill-opacity:1;stroke:none"
           id="rect2987-5-2-7-5"
           width="3"
           height="2"
           x="224.72636"
           y="459.79248" />
      </g>
      <rect
         y="335.02655"
         x="511.76254"
         height="72"
         width="72"
         id="rect2985"
         style="fill:#ffffff;fill-opacity:1;stroke:none" />
      <g
         id="g7558"
         transform="translate(0,30)">
        <rect
           style="fill:#636363;fill-opacity:1;stroke:none"
           id="rect4182"
           width="150"
           height="72"
           x="511.76254"
           y="383.02655" />
        <g
           id="g7564"
           transform="translate(1.1359552,-12)">
          <path
             inkscape:connector-curvature="0"
             id="rect2987-5-7"
             d="m 542.42151,417.9953 -2.125,2.125 1,1 0.4375,0.40625 0.96875,1 c 0.93768,0.93768 1.46875,2.20517 1.46875,3.53125 l 0,15 -3,0 0,3 9,0 0,-3 -3,0 0,-4.03125 0,-2.71875 0,-1.25 0,-5 0,-2 c 0,-2.76142 2.23858,-5 5,-5 2.76142,0 5,2.23858 5,5 l 0,2 c 0,2.76142 -2.23858,5 -5,5 -1.32608,0 -2.59357,-0.53107 -3.53125,-1.46875 l -0.46875,-0.46875 0,0.9375 0,2.9375 c 1.20544,0.69457 2.58346,1.0625 4,1.0625 4.41828,0 8,-3.58172 8,-8 l 0,-2 c 0,-4.41828 -3.58172,-8 -8,-8 -2.67988,0 -5.04822,1.32092 -6.5,3.34375 -0.25262,-0.35236 -0.53319,-0.68944 -0.84375,-1 l -0.96875,-0.96875 -0.4375,-0.4375 -1,-1 z m -3.6875,3.6875 -2.125,2.125 6.5625,6.5625 0,-4.25 -4.4375,-4.4375 z"
             style="fill:#5acdc7;fill-opacity:1;stroke:none" />
          <text
             sodipodi:linespacing="130%"
             id="text4178"
             y="440.97968"
             x="565.62854"
             style="font-size:28px;font-style:normal;font-variant:normal;font-weight:normal;font-stretch:normal;text-align:justify;line-height:129.99999523%;letter-spacing:0px;word-spacing:0px;writing-mode:lr-tb;text-anchor:start;fill:#ffffff;fill-opacity:1;stroke:none;font-family:Roboto;-inkscape-font-specification:Roboto"
             xml:space="preserve"><tspan
               y="440.97968"
               x="565.62854"
               id="tspan4180"
               sodipodi:role="line">15.00</tspan></text>
        </g>
      </g>
      <path
         inkscape:connector-curvature="0"
         id="rect2987-5-7-5"
         d="m 541.79379,357.9953 -2.125,2.125 1,1 0.4375,0.40625 0.96875,1 c 0.93768,0.93768 1.46875,2.20517 1.46875,3.53125 l 0,15 -3,0 0,3 9,0 0,-3 -3,0 0,-4.03125 0,-2.71875 0,-1.25 0,-5 0,-2 c 0,-2.76142 2.23858,-5 5,-5 2.76142,0 5,2.23858 5,5 l 0,2 c 0,2.76142 -2.23858,5 -5,5 -1.32608,0 -2.59357,-0.53107 -3.53125,-1.46875 l -0.46875,-0.46875 0,0.9375 0,2.9375 c 1.20544,0.69457 2.58346,1.0625 4,1.0625 4.41828,0 8,-3.58172 8,-8 l 0,-2 c 0,-4.41828 -3.58172,-8 -8,-8 -2.67988,0 -5.04822,1.32092 -6.5,3.34375 -0.25262,-0.35236 -0.53319,-0.68944 -0.84375,-1 l -0.96875,-0.96875 -0.4375,-0.4375 -1,-1 z m -3.6875,3.6875 -2.125,2.125 6.5625,6.5625 0,-4.25 -4.4375,-4.4375 z"
         style="fill:#5acdc7;fill-opacity:1;stroke:none" />
      <path
         inkscape:connector-curvature="0"
         id="rect2987-5-7-6"
         d="m 619.79382,357.9953 -2.125,2.125 1,1 0.4375,0.40625 0.96875,1 c 0.93768,0.93768 1.46875,2.20517 1.46875,3.53125 l 0,15 -3,0 0,3 9,0 0,-3 -3,0 0,-4.03125 0,-2.71875 0,-1.25 0,-5 0,-2 c 0,-2.76142 2.23858,-5 5,-5 2.76142,0 5,2.23858 5,5 l 0,2 c 0,2.76142 -2.23858,5 -5,5 -1.32608,0 -2.59357,-0.53107 -3.53125,-1.46875 l -0.46875,-0.46875 0,0.9375 0,2.9375 c 1.20544,0.69457 2.58346,1.0625 4,1.0625 4.41828,0 8,-3.58172 8,-8 l 0,-2 c 0,-4.41828 -3.58172,-8 -8,-8 -2.67988,0 -5.04822,1.32092 -6.5,3.34375 -0.25262,-0.35236 -0.53319,-0.68944 -0.84375,-1 l -0.96875,-0.96875 -0.4375,-0.4375 -1,-1 z m -3.6875,3.6875 -2.125,2.125 6.5625,6.5625 0,-4.25 -4.4375,-4.4375 z"
         style="fill:#ffffff;fill-opacity:1;stroke:none" />
    </g>
  </g>
</svg>
