<?xml version="1.0" encoding="UTF-8" standalone="no"?>
<!-- Created with Inkscape (http://www.inkscape.org/) -->

<svg
   xmlns:dc="http://purl.org/dc/elements/1.1/"
   xmlns:cc="http://creativecommons.org/ns#"
   xmlns:rdf="http://www.w3.org/1999/02/22-rdf-syntax-ns#"
   xmlns:svg="http://www.w3.org/2000/svg"
   xmlns="http://www.w3.org/2000/svg"
   xmlns:sodipodi="http://sodipodi.sourceforge.net/DTD/sodipodi-0.dtd"
   xmlns:inkscape="http://www.inkscape.org/namespaces/inkscape"
   width="1200"
   height="800"
   id="svg3609"
   version="1.1"
   inkscape:version="0.48.5 r10040"
   sodipodi:docname="floops01.svg">
  <defs
     id="defs3611" />
  <sodipodi:namedview
     id="base"
     pagecolor="#ffffff"
     bordercolor="#666666"
     borderopacity="1.0"
     inkscape:pageopacity="0.0"
     inkscape:pageshadow="2"
     inkscape:zoom="0.74444444"
     inkscape:cx="650"
     inkscape:cy="450"
     inkscape:current-layer="layer1"
     inkscape:document-units="px"
     showgrid="false"
     inkscape:window-width="1440"
     inkscape:window-height="856"
     inkscape:window-x="0"
     inkscape:window-y="1"
     inkscape:window-maximized="1" />
  <metadata
     id="metadata3614">
    <rdf:RDF>
      <cc:Work
         rdf:about="">
        <dc:format>image/svg+xml</dc:format>
        <dc:type
           rdf:resource="http://purl.org/dc/dcmitype/StillImage" />
        <dc:title />
      </cc:Work>
    </rdf:RDF>
  </metadata>
  <g
     id="layer1"
     inkscape:label="Layer 1"
     inkscape:groupmode="layer"
     transform="translate(0,32)">
    <rect
       style="fill:#f2f2f2;fill-opacity:1;stroke:none"
       id="rect3783"
       width="1300"
       height="900"
       x="-50"
       y="-82" />
    <g
       id="g9118"
       transform="matrix(3.0000002,0,0,3.0000002,-1275.6096,-1270.9367)">
      <rect
         y="514.31219"
         x="488.32812"
         height="64"
         width="64"
         id="rect8505"
         style="fill:#00aad4;fill-opacity:1;stroke:none" />
      <path
         id="path3813-1-4-1-7-0-8-6-2-3-29-9-9-6-0"
         d="m 503.34375,538.3125 c -2.04738,0 -4.09415,0.78165 -5.65625,2.34375 -3.12419,3.12419 -3.12419,8.18831 0,11.3125 3.12419,3.12419 8.18831,3.12419 11.3125,0 1.69497,-1.69497 2.45668,-3.9701 2.3125,-6.1875 0.33747,0.0219 0.69372,0.0207 1.03125,0 -0.1438,2.217 0.61785,4.49285 2.3125,6.1875 3.12419,3.12419 8.18831,3.12419 11.3125,0 1.69497,-1.69497 2.45668,-3.9701 2.3125,-6.1875 0.34767,0.0226 0.71483,0.0226 1.0625,0 -0.14417,2.21741 0.61752,4.49252 2.3125,6.1875 3.12414,3.12414 8.1883,3.12419 11.3125,0 3.12419,-3.12419 3.12414,-8.18836 0,-11.3125 -1.56214,-1.56214 -3.60888,-2.34376 -5.65625,-2.34375 -2.04737,10e-6 -4.09415,0.78165 -5.65625,2.34375 l -0.0312,0 c -1.56211,1.56211 -4.09415,1.5621 -5.65625,0 -1.5621,-1.5621 -3.60887,-2.34375 -5.65625,-2.34375 -2.04738,0 -4.09415,0.78165 -5.65625,2.34375 -1.5621,1.5621 -4.09415,1.5621 -5.65625,0 -1.5621,-1.5621 -3.60887,-2.34375 -5.65625,-2.34375 z m 0,4 c 1.02369,0 2.0627,0.3752 2.84375,1.15625 1.5621,1.5621 1.5621,4.09415 0,5.65625 -1.5621,1.5621 -4.09415,1.5621 -5.65625,0 -1.5621,-1.5621 -1.5621,-4.09415 0,-5.65625 0.78105,-0.78105 1.78881,-1.15625 2.8125,-1.15625 z m 16.96875,0 c 1.02369,0 2.0627,0.3752 2.84375,1.15625 1.5621,1.5621 1.5621,4.09415 0,5.65625 -1.5621,1.5621 -4.09415,1.5621 -5.65625,0 -1.5621,-1.5621 -1.5621,-4.09415 0,-5.65625 0.78105,-0.78105 1.78881,-1.15625 2.8125,-1.15625 z m 17,0 c 1.02372,3e-5 2.06268,0.37518 2.84375,1.15625 1.56207,1.56207 1.5621,4.09415 0,5.65625 -1.5621,1.5621 -4.09418,1.56207 -5.65625,0 -1.56214,-1.56214 -1.5621,-4.09415 0,-5.65625 0.78105,-0.78104 1.78885,-1.15621 2.8125,-1.15625 z"
         style="fill:#ffffff;fill-opacity:1;stroke:none"
         inkscape:connector-curvature="0" />
      <path
         inkscape:connector-curvature="0"
         id="path3813-1-4-1-7-0-8-6-2-3-29-9-9-5-7-7"
         d="m 560.32812,522.31219 0,8 0,8 0,8 0,24 8,0 0,-24 20,0 0,-8 -20,0 0,-8 20,0 0,-8 -28,0 z m 32,0 0,32 c 0,8.83656 7.16345,16 16,16 3.78445,0 7.26058,-1.30348 10,-3.5 6.2822,5.03408 15.48807,4.63694 21.3125,-1.1875 3.37434,-3.37434 4.89521,-7.89724 4.625,-12.3125 0.67507,0.0414 1.38756,0.0438 2.0625,0 -0.2702,4.41526 1.25067,8.93816 4.625,12.3125 6.24838,6.24838 16.37662,6.24838 22.625,0 3.37434,-3.37434 4.89521,-7.89724 4.625,-12.3125 0.67507,0.0414 1.38756,0.0438 2.0625,0 -0.02,0.32732 -0.0624,0.67218 -0.0624,1 l 0,32 8,0 0,-18.125 c 4.93254,2.85088 11.06852,2.84904 16,0 7.65268,4.41828 17.45672,1.77768 21.875,-5.875 l 7.5,-12.9375 c 3.34804,1.933 4.4955,6.21446 2.5625,9.5625 -1.59907,2.76968 -4.79456,3.99038 -7.75,3.25 l -0.625,1.125 c -1.24244,2.15196 -2.82224,3.96568 -4.6875,5.375 2.23504,1.1753 4.62708,1.75542 7,1.75 l 32,0 0,-8 -18.8125,0 c 3.75806,-7.09702 1.32382,-15.952 -5.6875,-20 l -6.9375,-4 -11.5,19.875 c -1.82916,3.1682 -5.49274,4.5989 -8.875,3.75 3.33304,-6.07578 2.39724,-13.91526 -2.75,-19.0625 -3.1242,-3.1242 -7.21774,-4.6875 -11.3125,-4.6875 -4.09475,0 -8.1883,1.5633 -11.3125,4.6875 -0.012,0.012 -0.0512,-0.012 -0.0624,0 -3.12684,3.09026 -8.13714,3.11286 -11.25,0 -3.1242,-3.1242 -7.21774,-4.6875 -11.3125,-4.6875 -4.09476,0 -8.1883,1.5633 -11.3125,4.6875 -0.012,0.012 -0.0512,-0.012 -0.0624,0 -3.12684,3.09026 -8.13714,3.11286 -11.25,0 -3.1242,-3.1242 -7.21774,-4.6875 -11.3125,-4.6875 -4.09476,0 -8.1883,1.5633 -11.3125,4.6875 -4.70012,4.70012 -5.93334,11.64878 -3.5625,17.4375 -1.3878,1.1583 -3.17598,1.875 -5.125,1.875 -4.41828,0 -8,-3.58172 -8,-8 l 0,-32 -8,0 z m 36,24 c 2.04738,0 4.06291,0.8129 5.625,2.375 3.1242,3.1242 3.1242,8.1883 0,11.3125 -3.12419,3.1242 -8.1883,3.1242 -11.3125,0 -3.12419,-3.1242 -3.12419,-8.1883 0,-11.3125 1.5621,-1.5621 3.64013,-2.375 5.6875,-2.375 z m 33.9375,0 c 2.04738,0 4.06291,0.8129 5.625,2.375 3.1242,3.1242 3.1242,8.1883 0,11.3125 -3.12419,3.1242 -8.1883,3.1242 -11.3125,0 -3.12419,-3.1242 -3.12419,-8.1883 0,-11.3125 1.5621,-1.5621 3.64013,-2.375 5.6875,-2.375 z m 33.9375,0 c 2.04738,0 4.06291,0.8129 5.625,2.375 3.1242,3.1242 3.1242,8.1883 0,11.3125 -3.12419,3.1242 -8.1883,3.1242 -11.3125,0 -3.12419,-3.1242 -3.12419,-8.1883 0,-11.3125 1.5621,-1.5621 3.64013,-2.375 5.6875,-2.375 z"
         style="fill:#ff9955;fill-opacity:1;stroke:none" />
    </g>
  </g>
</svg>
