<?xml version="1.0" encoding="UTF-8" standalone="no"?>
<!-- Created with Inkscape (http://www.inkscape.org/) -->

<svg
   xmlns:dc="http://purl.org/dc/elements/1.1/"
   xmlns:cc="http://creativecommons.org/ns#"
   xmlns:rdf="http://www.w3.org/1999/02/22-rdf-syntax-ns#"
   xmlns:svg="http://www.w3.org/2000/svg"
   xmlns="http://www.w3.org/2000/svg"
   xmlns:sodipodi="http://sodipodi.sourceforge.net/DTD/sodipodi-0.dtd"
   xmlns:inkscape="http://www.inkscape.org/namespaces/inkscape"
   width="1200"
   height="800"
   id="svg3609"
   version="1.1"
   inkscape:version="0.48.5 r10040"
   sodipodi:docname="greenbay02.svg">
  <defs
     id="defs3611" />
  <sodipodi:namedview
     id="base"
     pagecolor="#ffffff"
     bordercolor="#666666"
     borderopacity="1.0"
     inkscape:pageopacity="0.0"
     inkscape:pageshadow="2"
     inkscape:zoom="0.74444444"
     inkscape:cx="650"
     inkscape:cy="450"
     inkscape:current-layer="layer1"
     inkscape:document-units="px"
     showgrid="false"
     inkscape:window-width="1440"
     inkscape:window-height="856"
     inkscape:window-x="0"
     inkscape:window-y="1"
     inkscape:window-maximized="1" />
  <metadata
     id="metadata3614">
    <rdf:RDF>
      <cc:Work
         rdf:about="">
        <dc:format>image/svg+xml</dc:format>
        <dc:type
           rdf:resource="http://purl.org/dc/dcmitype/StillImage" />
        <dc:title />
      </cc:Work>
    </rdf:RDF>
  </metadata>
  <g
     id="layer1"
     inkscape:label="Layer 1"
     inkscape:groupmode="layer"
     transform="translate(0,32)">
    <rect
       style="fill:#e6e6e6;fill-opacity:1;stroke:none"
       id="rect3783"
       width="1300"
       height="900"
       x="-50"
       y="-82" />
    <g
       id="g4752"
       transform="matrix(1.5,0,0,1.5,268.72039,-302.00953)">
      <rect
         y="255.42299"
         x="-49.146919"
         height="382.5"
         width="540"
         id="rect44213"
         style="fill:#f9f9f9;fill-opacity:1;stroke:none" />
      <rect
         y="293.06628"
         x="-49.146919"
         height="61.603508"
         width="540"
         id="rect44460"
         style="fill:#217844;fill-opacity:1;stroke:none" />
      <rect
         y="276.81299"
         x="375.35309"
         height="94.110001"
         width="84.300003"
         id="rect44213-9-7-0-4"
         style="fill:#f9f9f9;fill-opacity:1;stroke:none" />
      <text
         sodipodi:linespacing="130%"
         id="text40151-3-1"
         y="339.17639"
         x="-28.497505"
         style="font-size:43.06542206px;font-style:normal;font-variant:normal;font-weight:900;font-stretch:normal;text-align:justify;line-height:129.99999523%;letter-spacing:0px;word-spacing:0px;writing-mode:lr-tb;text-anchor:start;fill:#ffdd55;fill-opacity:1;stroke:none;font-family:Roboto;-inkscape-font-specification:Roboto Heavy"
         xml:space="preserve"><tspan
           y="339.17639"
           x="-28.497505"
           id="tspan40153-0-1"
           sodipodi:role="line"><tspan
   id="tspan44468"
   style="fill:#ffffff">GO</tspan> PACK <tspan
   id="tspan44470"
   style="fill:#ffffff">GO</tspan></tspan></text>
      <rect
         y="278.81299"
         x="377.35309"
         height="90.110001"
         width="80.300003"
         id="rect44213-9-7-0"
         style="fill:#217844;fill-opacity:1;stroke:none" />
      <rect
         y="580.67297"
         x="-26.646919"
         height="1"
         width="495"
         id="rect44213-9-8-8"
         style="fill:#cccccc;fill-opacity:1;stroke:none" />
      <rect
         transform="matrix(0,1,-1,0,0,0)"
         y="-221.35307"
         x="390.42297"
         height="1"
         width="191.25"
         id="rect44213-9-8-8-9"
         style="fill:#cccccc;fill-opacity:1;stroke:none" />
      <rect
         transform="scale(-1,-1)"
         y="-555.04797"
         x="-439.97809"
         height="1"
         width="191.25"
         id="rect44213-9-8-8-9-4"
         style="fill:#cccccc;fill-opacity:1;stroke:none" />
      <rect
         transform="scale(-1,-1)"
         y="-509.04797"
         x="-439.97809"
         height="1"
         width="191.25"
         id="rect44213-9-8-8-9-4-2"
         style="fill:#cccccc;fill-opacity:1;stroke:none" />
      <rect
         transform="scale(-1,-1)"
         y="-463.04797"
         x="-439.97809"
         height="1"
         width="191.25"
         id="rect44213-9-8-8-9-4-9"
         style="fill:#cccccc;fill-opacity:1;stroke:none" />
      <rect
         y="280.81299"
         x="379.35309"
         height="86.110001"
         width="76.300003"
         id="rect44213-9-7-0-2"
         style="fill:#ffffff;fill-opacity:1;stroke:none" />
      <text
         xml:space="preserve"
         style="font-size:14px;font-style:normal;font-variant:normal;font-weight:300;font-stretch:normal;text-align:center;line-height:100%;letter-spacing:0px;word-spacing:0px;writing-mode:lr-tb;text-anchor:middle;fill:#cccccc;fill-opacity:1;stroke:none;font-family:Roboto;-inkscape-font-specification:Roboto Light"
         x="417.5578"
         y="315.1283"
         id="text40151-3-2-9"
         sodipodi:linespacing="100%"><tspan
           sodipodi:role="line"
           id="tspan40153-0-2-0"
           x="417.5578"
           y="315.1283">Place</tspan><tspan
           id="tspan44456"
           sodipodi:role="line"
           x="417.5578"
           y="329.1283">Stamp</tspan><tspan
           id="tspan44458"
           sodipodi:role="line"
           x="417.5578"
           y="343.1283">Here</tspan></text>
      <text
         xml:space="preserve"
         style="font-size:13px;font-style:normal;font-variant:normal;font-weight:300;font-stretch:normal;text-align:start;line-height:129.99999523%;letter-spacing:0px;word-spacing:0px;writing-mode:lr-tb;text-anchor:start;fill:#666666;fill-opacity:1;stroke:none;font-family:Roboto;-inkscape-font-specification:Roboto Light"
         x="-26.906685"
         y="401.08704"
         id="text40151-3-2-9-5"
         sodipodi:linespacing="130%"><tspan
           id="tspan44522"
           style="font-size:13px;font-style:normal;font-variant:normal;font-weight:300;font-stretch:normal;text-align:start;line-height:129.99999523%;writing-mode:lr-tb;text-anchor:start;fill:#666666;font-family:Roboto;-inkscape-font-specification:Roboto Light"
           sodipodi:role="line"
           x="-26.906685"
           y="401.08704">With a big old coach, so lively and</tspan><tspan
           id="tspan44526"
           style="font-size:13px;font-style:normal;font-variant:normal;font-weight:300;font-stretch:normal;text-align:start;line-height:129.99999523%;writing-mode:lr-tb;text-anchor:start;fill:#666666;font-family:Roboto;-inkscape-font-specification:Roboto Light"
           sodipodi:role="line"
           x="-26.906685"
           y="417.98703">hearty, I knew in a moment it must be</tspan><tspan
           id="tspan44530"
           style="font-size:13px;font-style:normal;font-variant:normal;font-weight:300;font-stretch:normal;text-align:start;line-height:129.99999523%;writing-mode:lr-tb;text-anchor:start;fill:#666666;font-family:Roboto;-inkscape-font-specification:Roboto Light"
           sodipodi:role="line"
           x="-26.906685"
           y="434.88702">McCarthy. More rapid than &quot;Da Bears&quot;</tspan><tspan
           id="tspan44534"
           style="font-size:13px;font-style:normal;font-variant:normal;font-weight:300;font-stretch:normal;text-align:start;line-height:129.99999523%;writing-mode:lr-tb;text-anchor:start;fill:#666666;font-family:Roboto;-inkscape-font-specification:Roboto Light"
           sodipodi:role="line"
           x="-26.906685"
           y="451.78705">his coursers they came, and he whistled,</tspan><tspan
           id="tspan44538"
           style="font-size:13px;font-style:normal;font-variant:normal;font-weight:300;font-stretch:normal;text-align:start;line-height:129.99999523%;writing-mode:lr-tb;text-anchor:start;fill:#666666;font-family:Roboto;-inkscape-font-specification:Roboto Light"
           sodipodi:role="line"
           x="-26.906685"
           y="468.68704">and shouted, and called them by name;</tspan><tspan
           id="tspan44572"
           style="font-size:13px;font-style:normal;font-variant:normal;font-weight:300;font-stretch:normal;text-align:start;line-height:129.99999523%;writing-mode:lr-tb;text-anchor:start;fill:#666666;font-family:Roboto;-inkscape-font-specification:Roboto Light"
           sodipodi:role="line"
           x="-26.906685"
           y="485.58704">&quot;Now, Rodgers! now, Matthews! now,</tspan><tspan
           id="tspan44542"
           style="font-size:13px;font-style:normal;font-variant:normal;font-weight:300;font-stretch:normal;text-align:start;line-height:129.99999523%;writing-mode:lr-tb;text-anchor:start;fill:#666666;font-family:Roboto;-inkscape-font-specification:Roboto Light"
           sodipodi:role="line"
           x="-26.906685"
           y="502.48703">Lacy and Nelson! On, Cobb! on Kuhn! on,</tspan><tspan
           id="tspan44546"
           style="font-size:13px;font-style:normal;font-variant:normal;font-weight:300;font-stretch:normal;text-align:start;line-height:129.99999523%;writing-mode:lr-tb;text-anchor:start;fill:#666666;font-family:Roboto;-inkscape-font-specification:Roboto Light"
           sodipodi:role="line"
           x="-26.906685"
           y="519.38702">Crosby and Quarless! To the top of The</tspan><tspan
           id="tspan44548"
           style="font-size:13px;font-style:normal;font-variant:normal;font-weight:300;font-stretch:normal;text-align:start;line-height:129.99999523%;writing-mode:lr-tb;text-anchor:start;fill:#666666;font-family:Roboto;-inkscape-font-specification:Roboto Light"
           sodipodi:role="line"
           x="-26.906685"
           y="536.28705">Leap! to the top of Lambeau! Now dash</tspan><tspan
           id="tspan44582"
           style="font-size:13px;font-style:normal;font-variant:normal;font-weight:300;font-stretch:normal;text-align:start;line-height:129.99999523%;writing-mode:lr-tb;text-anchor:start;fill:#666666;font-family:Roboto;-inkscape-font-specification:Roboto Light"
           sodipodi:role="line"
           x="-26.906685"
           y="553.18701">away! dash away! dash away all!&quot;</tspan></text>
      <g
         transform="matrix(-0.52138839,-0.29827276,0.29827276,-0.52138839,-580.06419,-855.83331)"
         id="g39641-1-9-8">
        <path
           sodipodi:type="star"
           style="fill:#ffdd55;fill-opacity:1;stroke:none"
           id="path39527-8-4-6"
           sodipodi:sides="3"
           sodipodi:cx="-2165.5542"
           sodipodi:cy="-1023.6928"
           sodipodi:r1="32.861416"
           sodipodi:r2="21.359921"
           sodipodi:arg1="-1.5707963"
           sodipodi:arg2="-0.52359878"
           inkscape:flatsided="false"
           inkscape:rounded="0.19"
           inkscape:randomized="0"
           d="m -2165.5542,-1056.5542 c 5.4877,0 15.7544,17.429 18.4982,22.1814 2.7439,4.7525 12.7045,22.3582 9.9606,27.1107 -2.7438,4.7525 -22.9711,4.9292 -28.4588,4.9292 -5.4877,0 -25.715,-0.1767 -28.4588,-4.9292 -2.7439,-4.7525 7.2167,-22.3582 9.9606,-27.1107 2.7438,-4.7524 13.0105,-22.1814 18.4982,-22.1814 z"
           inkscape:transform-center-y="-8.2153538" />
        <path
           sodipodi:type="arc"
           style="fill:#d4aa00;fill-opacity:1;stroke:none"
           id="path39529-6-2-3"
           sodipodi:cx="-2176.5149"
           sodipodi:cy="-1018.7955"
           sodipodi:rx="3.9645081"
           sodipodi:ry="3.9645081"
           d="m -2172.5504,-1018.7955 c 0,2.1896 -1.775,3.9645 -3.9645,3.9645 -2.1895,0 -3.9645,-1.7749 -3.9645,-3.9645 0,-2.1895 1.775,-3.9645 3.9645,-3.9645 2.1895,0 3.9645,1.775 3.9645,3.9645 z"
           transform="translate(-0.6841809,-6.6707638)" />
        <path
           transform="matrix(0.65484701,0,0,0.65484701,-746.99009,-372.45748)"
           sodipodi:type="arc"
           style="fill:#d4aa00;fill-opacity:1;stroke:none"
           id="path39529-0-7-3-1"
           sodipodi:cx="-2176.5149"
           sodipodi:cy="-1018.7955"
           sodipodi:rx="3.9645081"
           sodipodi:ry="3.9645081"
           d="m -2172.5504,-1018.7955 c 0,2.1896 -1.775,3.9645 -3.9645,3.9645 -2.1895,0 -3.9645,-1.7749 -3.9645,-3.9645 0,-2.1895 1.775,-3.9645 3.9645,-3.9645 2.1895,0 3.9645,1.775 3.9645,3.9645 z" />
        <path
           transform="matrix(1.2157206,0,0,1.2157206,486.16045,211.18775)"
           sodipodi:type="arc"
           style="fill:#d4aa00;fill-opacity:1;stroke:none"
           id="path39529-5-3-3-4"
           sodipodi:cx="-2176.5149"
           sodipodi:cy="-1018.7955"
           sodipodi:rx="3.9645081"
           sodipodi:ry="3.9645081"
           d="m -2172.5504,-1018.7955 c 0,2.1896 -1.775,3.9645 -3.9645,3.9645 -2.1895,0 -3.9645,-1.7749 -3.9645,-3.9645 0,-2.1895 1.775,-3.9645 3.9645,-3.9645 2.1895,0 3.9645,1.775 3.9645,3.9645 z" />
        <path
           transform="matrix(0.70877717,0,0,0.70877717,-622.55468,-291.04443)"
           sodipodi:type="arc"
           style="fill:#d4aa00;fill-opacity:1;stroke:none"
           id="path39529-51-3-4-5"
           sodipodi:cx="-2176.5149"
           sodipodi:cy="-1018.7955"
           sodipodi:rx="3.9645081"
           sodipodi:ry="3.9645081"
           d="m -2172.5504,-1018.7955 c 0,2.1896 -1.775,3.9645 -3.9645,3.9645 -2.1895,0 -3.9645,-1.7749 -3.9645,-3.9645 0,-2.1895 1.775,-3.9645 3.9645,-3.9645 2.1895,0 3.9645,1.775 3.9645,3.9645 z" />
        <path
           inkscape:connector-curvature="0"
           style="fill:#d4aa00;fill-opacity:1;stroke:none"
           d="m -2155.5938,-1047.6562 c -1.7404,0.4187 -3.0312,1.9747 -3.0312,3.8437 0,2.1895 1.7792,3.9687 3.9688,3.9687 1.3367,0 2.5006,-0.6739 3.2187,-1.6874 -1.2785,-1.9974 -2.6693,-4.1029 -4.1563,-6.125 z"
           id="path39529-7-5-5-2" />
        <path
           transform="matrix(0.83820954,0,0,0.83820954,-325.02152,-157.982)"
           sodipodi:type="arc"
           style="fill:#d4aa00;fill-opacity:1;stroke:none"
           id="path39529-57-5-7-9"
           sodipodi:cx="-2176.5149"
           sodipodi:cy="-1018.7955"
           sodipodi:rx="3.9645081"
           sodipodi:ry="3.9645081"
           d="m -2172.5504,-1018.7955 c 0,2.1896 -1.775,3.9645 -3.9645,3.9645 -2.1895,0 -3.9645,-1.7749 -3.9645,-3.9645 0,-2.1895 1.775,-3.9645 3.9645,-3.9645 2.1895,0 3.9645,1.775 3.9645,3.9645 z" />
        <path
           inkscape:connector-curvature="0"
           style="fill:#d4aa00;fill-opacity:1;stroke:none"
           d="m -2191.4688,-1019.9375 c -1.0969,2.5383 -2.0373,5.0208 -2.5624,7.1875 0.6398,0.4429 1.4128,0.7188 2.25,0.7188 2.1895,0 3.9687,-1.7793 3.9687,-3.9688 0,-2.0841 -1.6132,-3.7778 -3.6563,-3.9375 z"
           id="path39529-8-2-8-5" />
        <path
           inkscape:connector-curvature="0"
           style="fill:#d4aa00;fill-opacity:1;stroke:none"
           d="m -2177.1875,-1008.6875 c -2.9689,0 -5.375,2.4061 -5.375,5.375 0,0.031 -5e-4,0.063 0,0.094 3.5847,0.4549 7.411,0.6732 10.6563,0.7813 0.046,-0.2822 0.094,-0.5799 0.094,-0.875 0,-2.9689 -2.4061,-5.375 -5.375,-5.375 z"
           id="path39529-73-0-3-7" />
        <path
           inkscape:connector-curvature="0"
           style="fill:#d4aa00;fill-opacity:1;stroke:none"
           d="m -2144.4688,-1028.2812 c -2.1895,0 -3.9687,1.7792 -3.9687,3.9687 0,2.1895 1.7792,3.9687 3.9687,3.9687 1.6015,0 2.9682,-0.9457 3.5938,-2.3124 -0.9097,-1.9337 -1.8458,-3.8197 -2.75,-5.5313 -0.2764,-0.061 -0.549,-0.094 -0.8438,-0.094 z"
           id="path39529-3-2-4-3" />
      </g>
    </g>
  </g>
</svg>
