<?xml version="1.0" encoding="UTF-8" standalone="no"?>
<!-- Created with Inkscape (http://www.inkscape.org/) -->

<svg
   xmlns:dc="http://purl.org/dc/elements/1.1/"
   xmlns:cc="http://creativecommons.org/ns#"
   xmlns:rdf="http://www.w3.org/1999/02/22-rdf-syntax-ns#"
   xmlns:svg="http://www.w3.org/2000/svg"
   xmlns="http://www.w3.org/2000/svg"
   xmlns:sodipodi="http://sodipodi.sourceforge.net/DTD/sodipodi-0.dtd"
   xmlns:inkscape="http://www.inkscape.org/namespaces/inkscape"
   width="1200"
   height="800"
   id="svg3609"
   version="1.1"
   inkscape:version="0.48.5 r10040"
   sodipodi:docname="rex.svg">
  <defs
     id="defs3611" />
  <sodipodi:namedview
     id="base"
     pagecolor="#ffffff"
     bordercolor="#666666"
     borderopacity="1.0"
     inkscape:pageopacity="0.0"
     inkscape:pageshadow="2"
     inkscape:zoom="1.055"
     inkscape:cx="481.04265"
     inkscape:cy="400"
     inkscape:current-layer="layer1"
     inkscape:document-units="px"
     showgrid="false"
     inkscape:window-width="1440"
     inkscape:window-height="856"
     inkscape:window-x="0"
     inkscape:window-y="1"
     inkscape:window-maximized="1" />
  <metadata
     id="metadata3614">
    <rdf:RDF>
      <cc:Work
         rdf:about="">
        <dc:format>image/svg+xml</dc:format>
        <dc:type
           rdf:resource="http://purl.org/dc/dcmitype/StillImage" />
        <dc:title />
      </cc:Work>
    </rdf:RDF>
  </metadata>
  <g
     id="layer1"
     inkscape:label="Layer 1"
     inkscape:groupmode="layer"
     transform="translate(0,32)">
    <rect
       style="fill:#f2f2f2;fill-opacity:1;stroke:none"
       id="rect3783-0"
       width="1300"
       height="900"
       x="-50"
       y="-82" />
    <g
       transform="matrix(5.9980406,0,0,5.9980406,-1010.5817,-2341.2694)"
       id="g3130"
       style="fill:#37c871">
      <path
         inkscape:connector-curvature="0"
         id="rect8105-7-2-33"
         d="m 253.5336,436.6973 c -5.54,0 -10,4.46 -10,10 l 0,10 c 0,5.54 4.46,10 10,10 l 28,0 c 4.85815,0 8.89467,-3.41987 9.8125,-8 l -4.15625,0 c -0.82091,2.33351 -3.03514,4 -5.65625,4 l -28,0 c -3.324,0 -6,-2.676 -6,-6 l 0,-10 c 0,-3.324 2.676,-6 6,-6 l 28,0 c 3.324,0 6,2.676 6,6 l 0,5.84375 -6.375,-1.71875 -6.40625,1.71875 -6.40625,-1.71875 -6.40625,1.71875 -6.40625,-1.71875 0,4.15625 6.40625,1.71875 6.40625,-1.71875 6.40625,1.71875 6.40625,-1.71875 6.40625,1.71875 3.96875,0 0,-10 c 0,-5.54 -4.46,-10 -10,-10 l -28,0 z m 4,8 c -1.10457,0 -2,0.89543 -2,2 0,1.10457 0.89543,2 2,2 1.10457,0 2,-0.89543 2,-2 0,-1.10457 -0.89543,-2 -2,-2 z"
         style="fill:#37c871;fill-opacity:1;stroke:none" />
      <path
         inkscape:connector-curvature="0"
         id="rect8105-5-4-6-1-1-4-2"
         d="m 293.5336,436.6973 8.6875,15 -8.6875,15 4.625,0 6.34375,-11 6.375,11 4.625,0 -8.6875,-15 8.6875,-15 -4.625,0 -6.375,11 -6.34375,-11 -4.625,0 z"
         style="fill:#37c871;fill-opacity:1;stroke:none" />
      <path
         id="rect8105-5-4-6-1-1-4"
         d="m 231.5336,436.6875 c -5.52285,0 -10,4.47715 -10,10 l 0,20 4,0 0,-20 c 0,-3.31371 2.68629,-6 6,-6 l 10,0 0,-4 -10,0 z"
         style="fill:#37c871;fill-opacity:1;stroke:none"
         inkscape:connector-curvature="0" />
    </g>
  </g>
</svg>
