<?xml version="1.0" encoding="UTF-8" standalone="no"?>
<!-- Created with Inkscape (http://www.inkscape.org/) -->

<svg
   xmlns:dc="http://purl.org/dc/elements/1.1/"
   xmlns:cc="http://creativecommons.org/ns#"
   xmlns:rdf="http://www.w3.org/1999/02/22-rdf-syntax-ns#"
   xmlns:svg="http://www.w3.org/2000/svg"
   xmlns="http://www.w3.org/2000/svg"
   xmlns:sodipodi="http://sodipodi.sourceforge.net/DTD/sodipodi-0.dtd"
   xmlns:inkscape="http://www.inkscape.org/namespaces/inkscape"
   width="1200"
   height="800"
   id="svg3609"
   version="1.1"
   inkscape:version="0.48.5 r10040"
   sodipodi:docname="llama.svg"
   inkscape:export-filename="/Users/bdharva/Dropbox/Personal/website/assets/work/graphics/llama.png"
   inkscape:export-xdpi="90"
   inkscape:export-ydpi="90">
  <defs
     id="defs3611" />
  <sodipodi:namedview
     id="base"
     pagecolor="#ffffff"
     bordercolor="#666666"
     borderopacity="1.0"
     inkscape:pageopacity="0.0"
     inkscape:pageshadow="2"
     inkscape:zoom="1.0065332"
     inkscape:cx="600.00003"
     inkscape:cy="399.99999"
     inkscape:current-layer="layer1"
     inkscape:document-units="px"
     showgrid="false"
     inkscape:window-width="1440"
     inkscape:window-height="856"
     inkscape:window-x="0"
     inkscape:window-y="1"
     inkscape:window-maximized="1" />
  <metadata
     id="metadata3614">
    <rdf:RDF>
      <cc:Work
         rdf:about="">
        <dc:format>image/svg+xml</dc:format>
        <dc:type
           rdf:resource="http://purl.org/dc/dcmitype/StillImage" />
        <dc:title></dc:title>
      </cc:Work>
    </rdf:RDF>
  </metadata>
  <g
     id="layer1"
     inkscape:label="Layer 1"
     inkscape:groupmode="layer"
     transform="translate(0,32)">
    <rect
       style="fill:#e6e6e6;fill-opacity:1;stroke:none"
       id="rect3783"
       width="1300"
       height="900"
       x="-50"
       y="-82" />
    <g
       transform="translate(4730.2791,-3330.1421)"
       id="g4955-3-6"
       inkscape:export-filename="/Users/bdharva/Dropbox/Personal/kirsten/llama.png"
       inkscape:export-xdpi="169.36"
       inkscape:export-ydpi="169.36">
      <path
         style="fill:#e9c6af;fill-opacity:1;stroke:#000000;stroke-width:1px;stroke-linecap:butt;stroke-linejoin:miter;stroke-opacity:1"
         d="m 712.84284,221.2809 -1.49026,-23.34747 -11.92211,-2.48377 -7.45132,11.92211 3.47728,32.28905 -5.4643,117.73083 -180.32192,2.98053 -18.37992,9.9351 -23.34746,-11.42536 -24.34098,2.98053 -7.94807,13.90913 10.43185,8.44482 20.36693,-4.96754 7.45132,4.96754 -12.91562,40.23713 6.45781,29.80527 22.85072,23.84422 26.32799,10.9286 -0.99351,108.29251 12.91562,7.94807 10.43185,-8.94158 -1.98702,-106.30549 19.87018,1.98702 0.49676,104.31847 6.95456,8.94158 14.40588,-6.45781 -0.49675,-110.77628 78.98398,3.47729 0.99351,107.29899 7.45132,5.4643 13.41237,-5.96106 -0.49675,-110.27952 16.88965,2.48378 2.48378,111.27303 11.42535,0.99351 9.43834,-8.44483 -1.49026,-113.7568 24.83773,-16.88966 18.37992,-35.76633 1.49026,-179.82517 -5.4643,-15.39939 5.96105,-18.87667 -4.96754,-17.38641 -11.92211,-0.99351 -6.45781,7.94807 0.49675,18.87668 z"
         id="path12488"
         inkscape:connector-curvature="0"
         transform="translate(-4730.2791,3298.1421)"
         sodipodi:nodetypes="ccccccccccccccccccccccccccccccccccccccccccccccc" />
      <path
         style="fill:#e9c6af;fill-opacity:1;stroke:#000000;stroke-width:1px;stroke-linecap:butt;stroke-linejoin:miter;stroke-opacity:1"
         d="m 557.35866,489.52838 -0.99351,110.77627 13.90913,3.97404 6.95456,-10.43185 -0.49676,-103.32495 z"
         id="path12498"
         inkscape:connector-curvature="0"
         transform="translate(-4730.2791,3298.1421)" />
      <path
         style="fill:#deaa87;stroke:#000000;stroke-width:1px;stroke-linecap:butt;stroke-linejoin:miter;stroke-opacity:1"
         d="m 710.85583,390.67421 -12.91562,3.47729 -5.96106,-7.94808 0.99351,-143.56208 20.36694,-21.36044 30.30203,0.99351 17.88316,21.8572 0,146.04585 -9.43833,5.4643 -12.91562,-2.98053 -14.90264,7.45132 z"
         id="path12492"
         inkscape:connector-curvature="0"
         transform="translate(-4730.2791,3298.1421)" />
      <path
         style="fill:#f4d7d7;stroke:#000000;stroke-width:1px;stroke-linecap:butt;stroke-linejoin:miter;stroke-opacity:1"
         d="m 724.76495,264.00179 -8.44482,7.94808 9.43833,9.43833 11.92211,-5.96105 -2.98052,-8.44483 z"
         id="path12490"
         inkscape:connector-curvature="0"
         transform="translate(-4730.2791,3298.1421)" />
      <path
         style="fill:#deaa87;fill-opacity:1;stroke:#000000;stroke-width:1px;stroke-linecap:butt;stroke-linejoin:miter;stroke-opacity:1"
         d="m 697.94021,232.2095 -5.96106,-14.90264 3.47728,-19.37343 11.42536,-2.98053 6.45781,26.328 25.33448,-0.49676 1.98702,-8.94158 0,-11.42536 8.44483,-5.4643 9.93509,3.47729 3.47728,16.88965 -7.45132,17.38641 -13.90912,-8.44483 -15.3994,-2.48377 -14.40588,2.48377 z"
         id="path12494"
         inkscape:connector-curvature="0"
         transform="translate(-4730.2791,3298.1421)" />
      <path
         style="fill:#deaa87;fill-opacity:1;stroke:#000000;stroke-width:1px;stroke-linecap:butt;stroke-linejoin:miter;stroke-opacity:1"
         d="m 490.29679,370.30728 -21.85721,-11.42536 -22.35395,4.96755 -10.43185,10.43184 6.45781,8.44483 15.89615,-2.48377 16.88965,3.47728 z"
         id="path12496"
         inkscape:connector-curvature="0"
         transform="translate(-4730.2791,3298.1421)" />
      <path
         style="fill:#e9c6af;fill-opacity:1;stroke:#000000;stroke-width:1px;stroke-linecap:butt;stroke-linejoin:miter;stroke-opacity:1"
         d="m 697.44345,488.03811 -1.49026,103.82171 6.45781,12.41887 13.41237,-3.47728 0.99351,-116.73733 z"
         id="path12500"
         inkscape:connector-curvature="0"
         transform="translate(-4730.2791,3298.1421)" />
      <path
         style="fill:#333333;fill-opacity:1;stroke:none"
         d="m -3237.375,3988.9062 c -6.3895,0.2547 -12.1642,4.6236 -13.9062,11.125 -3.0944,11.5483 -1.3841,23.2449 3.875,33 -3.4467,5.9107 -5.4063,12.79 -5.4063,20.125 l 0.1563,0 c -0.087,0 -0.1563,0.07 -0.1563,0.1563 l 0,100 c 0,-0.087 -0.07,-0.1561 -0.1563,-0.1563 l -159.6874,0 c -0.087,0 -0.1563,0.07 -0.1563,0.1563 l 0,-0.1875 c -13.0303,0 -25.6948,3.6338 -36.625,10.3438 0.2434,-0.1504 0.4731,-0.3218 0.7187,-0.4688 -8.3188,-6.6527 -18.7279,-10.1178 -29.2812,-9.8438 -7.2539,0.1886 -14.5865,2.1479 -21.3125,6.0313 -7.1743,4.1421 -9.6108,13.2945 -5.4687,20.4687 4.1421,7.1744 13.2945,9.6423 20.4687,5.5 4.2055,-2.4279 9.0839,-2.5747 13.25,-0.8437 -18.1747,27.1951 -15.2633,64.2992 8.75,88.3125 9.8327,9.8327 21.8524,16.1157 34.5,18.875 l 0,101.5 c 0,0.087 0.07,0.1564 0.1563,0.1562 l -0.1563,0 c 0,8.2844 6.7157,15 15,15 8.2843,0 15,-6.7157 15,-15 l -0.1563,0 c 0.087,0 0.1563,-0.07 0.1563,-0.1562 l 0,-99.8438 10,0 0,99.8438 c 0,0.087 0.07,0.1564 0.1563,0.1562 l -0.1563,0 c 0,8.2844 6.7157,15 15,15 8.2843,0 15,-6.7157 15,-15 l -0.1563,0 c 0.087,0 0.1563,-0.07 0.1563,-0.1562 l 0,-99.8438 70,0 0,99.8438 c 0,0.087 0.07,0.1564 0.1563,0.1562 l -0.1563,0 c 0,8.2843 6.7157,15 15,15 8.2843,0 15,-6.7157 15,-15 l -0.1563,0 c 0.087,0 0.1563,-0.07 0.1563,-0.1562 l 0,-99.8438 c 3.3871,0 6.7164,-0.2084 10,-0.5937 l 0,100.4375 c 0,0.087 0.07,0.1563 0.1563,0.1562 l -0.1563,0 c 0,8.2843 6.7157,15 15,15 8.2843,0 15,-6.7157 15,-15 l -0.1563,0 c 0.087,0 0.1563,-0.07 0.1563,-0.1562 l 0,-109.6875 c 0,-0.043 0,-0.097 -0.031,-0.125 26.7977,-14.3025 45.0313,-42.534 45.0313,-75.0313 l -0.1563,0 c 0.087,0 0.1563,-0.07 0.1563,-0.1562 l 0,-24.8438 0,-129.8437 c 0,-0.086 -0.07,-0.1563 -0.1563,-0.1563 l 0.1563,0 c 0,-7.3404 -1.9862,-14.2111 -5.4375,-20.125 5.2589,-9.7552 6.9693,-21.4517 3.875,-33 -1.7421,-6.5016 -7.4855,-10.8708 -13.875,-11.125 -0.3686,-0.014 -0.7512,-0.015 -1.125,0 -1.1213,0.047 -2.2497,0.2298 -3.375,0.5313 -8.002,2.1441 -12.7378,10.3419 -10.5938,18.3437 l 9.6563,-2.5624 0,-0.031 c -0.6948,-2.6578 0.8739,-5.3819 3.5313,-6.0937 2.6673,-0.7149 5.4101,0.8639 6.125,3.5312 1.989,7.4259 1.408,14.9328 -1.1563,21.5938 -2.5281,-2.4132 -5.3777,-4.5298 -8.4687,-6.2188 1.0675,-4.0586 1.1332,-8.4343 -0.031,-12.7812 l -9.6563,2.5937 c 0.5861,2.2048 0.6621,4.4247 0.2813,6.5313 -3.1201,-0.7819 -6.3878,-1.1873 -9.75,-1.1876 -3.3622,0 -6.6299,0.406 -9.75,1.1876 -0.3884,-2.1097 -0.3374,-4.3214 0.25,-6.5313 l -9.6563,-2.5937 c -1.1682,4.3602 -1.0769,8.7436 0,12.8124 -3.0987,1.6949 -5.9673,3.7962 -8.5,6.2188 -2.5751,-6.6694 -3.1494,-14.1864 -1.1562,-21.625 0.7147,-2.6673 3.4577,-4.2461 6.125,-3.5312 2.6575,0.7118 4.2267,3.4357 3.5312,6.0937 l 9.6563,2.5937 c 2.1441,-8.0018 -2.592,-16.1996 -10.5937,-18.3437 -1.5004,-0.402 -2.9943,-0.5897 -4.4688,-0.5313 z m 24.5625,34.25 c 16.5685,0 30,13.4316 30,30 l 0.1563,0 c -0.087,0 -0.1563,0.07 -0.1563,0.1563 l 0,129.8437 c 0,2.7615 -2.2386,5.0001 -5,5 -2.7614,0 -5,-2.2384 -5,-5 0,-2.7614 -2.2386,-5 -5,-5 -2.7614,0 -5,2.2387 -5,5 0,5.5229 -4.4772,10 -10,10 -5.5228,0 -10,-4.4771 -10,-10 0,-2.7614 -2.2386,-5 -5,-5 -2.7614,0 -5,2.2387 -5,5 0,2.7615 -2.2386,5.0001 -5,5 -2.7614,0 -5,-2.2384 -5,-5 l -0.1563,0 c 0.087,0 0.1563,-0.07 0.1563,-0.1562 l 0,-129.6875 c 0,-0.086 -0.07,-0.1563 -0.1563,-0.1563 l 0.1563,0 c 0,-16.5684 13.4315,-30 30,-30 z m -20.5313,20 c -2.5209,0.2564 -4.4687,2.4113 -4.4687,5 0,2.7618 2.2386,5.0002 5,5 2.7614,2e-4 5,-2.2384 5,-5 0,-2.7613 -2.2386,-5 -5,-5 -0.1726,0 -0.3631,-0.017 -0.5313,0 z m 40,0 c -2.5209,0.2564 -4.4687,2.4113 -4.4687,5 0,2.7618 2.2386,5.0002 5,5 2.7614,2e-4 5,-2.2384 5,-5 0,-2.7613 -2.2386,-5 -5,-5 -0.1726,0 -0.3631,-0.017 -0.5313,0 z m -19.4687,0.9688 c -5.5228,0 -10,4.4772 -10,10 0,2.1114 0.6642,4.0735 1.7813,5.6875 -0.5566,0.2137 -1.1496,0.3438 -1.7813,0.3437 -1.8409,0 -3.4447,-1.0185 -4.3125,-2.5 l -8.6875,5 c 1.82,3.1526 4.6961,5.4858 8.0313,6.6563 0.5925,7.7416 7.0751,13.8439 14.9687,13.8437 7.9041,2e-4 14.391,-6.1185 14.9687,-13.875 3.2594,-1.141 6.1348,-3.3939 8,-6.625 l -8.6874,-5.0312 c -0.8646,1.4945 -2.4306,2.5315 -4.2813,2.5312 -0.6317,0 -1.2247,-0.13 -1.7813,-0.3437 1.1171,-1.614 1.7813,-3.5761 1.7813,-5.6875 0,-5.5228 -4.4772,-10 -10,-10 z m 0,22.1875 c 0.7641,0.6837 1.5912,1.2878 2.5,1.8125 0.7679,0.4434 1.5703,0.7988 2.375,1.0938 -0.4921,2.2442 -2.4829,3.9376 -4.875,3.9374 -2.3921,0 -4.3829,-1.6931 -4.875,-3.9374 1.8172,-0.6614 3.4632,-1.6399 4.875,-2.9063 z m -17.8437,22.1563 c -1.6013,0.1131 -3.1373,0.974 -4,2.4687 -1.3808,2.3915 -0.5478,5.4632 1.8437,6.8437 12.376,7.1454 27.624,7.1454 40,0 2.3915,-1.3807 3.1932,-4.4522 1.8125,-6.8437 -1.3807,-2.3915 -4.421,-3.1932 -6.8125,-1.8125 -4.415,2.5563 -9.5314,4.0312 -15,4.0312 -5.4644,0 -10.5873,-1.4786 -15,-4.0312 -0.8968,-0.5178 -1.8831,-0.7241 -2.8437,-0.6562 z m -2.6876,42.1874 c -2.521,0.2561 -4.4687,2.4112 -4.4687,5 0,8.2843 6.7157,15 15,15 3.8553,10e-5 7.3429,-1.4848 10,-3.875 2.6571,2.3901 6.1447,3.875 10,3.875 8.2843,10e-5 15,-6.7157 15,-15 0,-2.7614 -2.2386,-5 -5,-5 -2.7614,0 -5,2.2387 -5,5 0,2.7615 -2.2386,5.0001 -5,5 -2.7614,0 -5,-2.2384 -5,-5 0,-2.7614 -2.2386,-5 -5,-5 -2.7614,0 -5,2.2387 -5,5 0,2.7615 -2.2386,5.0001 -5,5 -2.7614,0 -5,-2.2384 -5,-5 0,-2.7614 -2.2386,-5 -5,-5 -0.1726,0 -0.3631,-0.017 -0.5313,0 z M -3412.8125,4163 c 0,0.087 0.07,0.1564 0.1563,0.1562 l 159.6874,0 c 0.087,0 0.1563,-0.07 0.1563,-0.1562 l 0,20 c 0,0.087 0.07,0.1564 0.1563,0.1562 l -0.1563,0 c 0,8.2843 6.7157,15 15,15 3.3856,10e-5 6.4897,-1.1393 9,-3.0312 3.6481,4.867 9.4495,8.0314 16,8.0312 6.5505,10e-5 12.3519,-3.1642 16,-8.0312 2.5103,1.8919 5.6144,3.0314 9,3.0312 1.7527,10e-5 3.4365,-0.3225 5,-0.875 l 0,10.7188 c 0,0.087 0.07,0.1564 0.1563,0.1562 l -0.1563,0 c 0,30.882 -18.6797,57.3774 -45.3437,68.875 1.6644,-1.3803 3.2836,-2.8461 4.8437,-4.4062 1.9526,-1.9526 1.9526,-5.1099 0,-7.0625 -0.9763,-0.9763 -2.246,-1.4689 -3.5313,-1.4687 -1.2851,0 -2.5861,0.4924 -3.5624,1.4687 -10.4431,10.4425 -23.76,16.2401 -37.4063,17.375 l 0,10 0,100.0625 c 0,0.087 0.07,0.1564 0.1563,0.1562 l -0.1563,0 c 0,2.7615 -2.2386,5 -5,5 -2.7614,0 -5,-2.2384 -5,-5 l -0.1563,0 c 0.087,0 0.1563,-0.07 0.1563,-0.1562 l 0,-109.6875 0,-0.375 c -13.6571,-1.1286 -26.9871,-6.9246 -37.4375,-17.375 -1.9526,-1.9526 -5.1099,-1.9526 -7.0625,0 -1.9526,1.9526 -1.9526,5.1099 0,7.0625 4.1442,4.1442 8.6932,7.644 13.5,10.5312 l -67.9687,0 c 4.8004,-2.8832 9.3323,-6.3948 13.4687,-10.5312 1.9526,-1.9526 1.9526,-5.1099 0,-7.0625 -1.9472,-1.9472 -5.1086,-1.9362 -7.0625,0 -0.01,0.01 -0.026,-0.01 -0.031,0 -10.4431,10.4352 -23.7665,16.2088 -37.4063,17.3437 l 0,10.25 0,99.8438 c 0,0.087 0.07,0.1564 0.1563,0.1562 l -0.1563,0 c 0,2.7615 -2.2386,5 -5,5 -2.7614,0 -5,-2.2384 -5,-5 l -0.1563,0 c 0.087,0 0.1563,-0.07 0.1563,-0.1562 l 0,-100.0625 0,-10.0313 c -13.6395,-1.1332 -26.966,-6.9037 -37.4063,-17.3437 -23.431,-23.4315 -23.4311,-61.4123 0,-84.8437 11.2522,-11.2522 26.4934,-17.5938 42.4063,-17.5938 l 0,-0.125 z m -64.9687,0.1562 c 7.2453,-0.1891 14.4291,1.8896 20.4687,5.9376 -1.7368,1.43 -3.3958,2.9589 -5,4.5624 -0.8489,0.8491 -1.7038,1.7132 -2.5,2.5938 -3.8706,-2.1173 -8.2327,-3.2081 -12.6563,-3.0938 -4.0297,0.1047 -8.1069,1.1866 -11.8437,3.3438 -2.3914,1.3808 -5.4318,0.5481 -6.8125,-1.8438 -1.3808,-2.3914 -0.5788,-5.4324 1.8125,-6.8124 5.2276,-3.0183 10.8958,-4.5398 16.5313,-4.6876 z m 66.0937,20.0938 c -2.5213,0.256 -4.5,2.4112 -4.5,5 0,8.2843 6.7157,15 15,15 3.8553,0 7.3429,-1.4849 10,-3.875 2.6571,2.3901 6.1447,3.875 10,3.875 8.2843,0 15,-6.7157 15,-15 0,-2.7614 -2.2386,-5 -5,-5 -2.7614,0 -5,2.2386 -5,5 0,2.7614 -2.2386,5 -5,5 -2.7614,0 -5,-2.2386 -5,-5 0,-2.7614 -2.2386,-5 -5,-5 -2.7614,0 -5,2.2386 -5,5 0,2.7614 -2.2386,5 -5,5 -2.7614,0 -5,-2.2386 -5,-5 0,-2.7614 -2.2386,-5 -5,-5 -0.1726,0 -0.3319,-0.017 -0.5,0 z m 113.3437,24.9062 c -2.521,0.2561 -4.4687,2.4112 -4.4687,5 0,8.2843 6.7157,15 15,15 3.8553,10e-5 7.3429,-1.4848 10,-3.875 2.6571,2.3901 6.1447,3.875 10,3.875 8.2843,10e-5 15,-6.7157 15,-15 0,-2.7614 -2.2386,-5 -5,-5 -2.7614,0 -5,2.2387 -5,5 0,2.7615 -2.2386,5.0001 -5,5 -2.7614,0 -5,-2.2384 -5,-5 0,-2.7614 -2.2386,-5 -5,-5 -2.7614,0 -5,2.2387 -5,5 0,2.7615 -2.2386,5.0001 -5,5 -2.7614,0 -5,-2.2384 -5,-5 0,-2.7614 -2.2386,-5 -5,-5 -0.1726,0 -0.3631,-0.017 -0.5313,0 z m -144.4687,7.875 c -2.7614,0 -5,2.2387 -5,5 0,8.2843 6.7157,15 15,15 3.8553,0 7.3429,-1.4848 10,-3.875 2.6571,2.3901 6.1447,3.875 10,3.875 8.2843,0 15,-6.7157 15,-15 0,-2.7614 -2.2386,-5 -5,-5 -2.7614,0 -5,2.2387 -5,5 0,2.7615 -2.2386,5 -5,5 -2.7614,0 -5,-2.2384 -5,-5 0,-2.7614 -2.2386,-5 -5,-5 -2.7614,0 -5,2.2387 -5,5 0,2.7615 -2.2386,5 -5,5 -2.7614,0 -5,-2.2384 -5,-5 0,-2.7614 -2.2386,-5 -5,-5 z m 64.4687,22.125 c -2.5211,0.2561 -4.4687,2.4112 -4.4687,5 0,8.2843 6.7157,15 15,15 3.3856,0 6.4897,-1.1394 9,-3.0312 3.6481,4.867 9.4495,8.0314 16,8.0312 6.5505,0 12.3519,-3.1642 16,-8.0312 2.5103,1.8918 5.6144,3.0314 9,3.0312 8.2843,0 15,-6.7157 15,-15 0,-2.7614 -2.2386,-5 -5,-5 -2.7614,0 -5,2.2387 -5,5 0,2.7615 -2.2386,5 -5,5 -2.7614,0 -5,-2.2384 -5,-5 0,-2.7614 -2.2386,-5 -5,-5 -2.7614,0 -5,2.2387 -5,5 0,5.5229 -4.4772,10 -10,10 -5.5228,0 -10,-4.4771 -10,-10 0,-2.7614 -2.2386,-5 -5,-5 -2.7614,0 -5,2.2387 -5,5 0,2.7615 -2.2386,5 -5,5 -2.7614,0 -5,-2.2384 -5,-5 0,-2.7614 -2.2386,-5 -5,-5 -0.1726,0 -0.3631,-0.017 -0.5313,0 z m 150.5313,49.5313 0,105.3125 c 0,0.087 0.07,0.1563 0.1563,0.1562 l -0.1563,0 c 0,2.7615 -2.2386,5 -5,5 -2.7614,0 -5,-2.2384 -5,-5 l -0.1563,0 c 0.087,0 0.1563,-0.07 0.1563,-0.1562 l 0,-102.2188 c 3.4229,-0.8255 6.7527,-1.8678 10,-3.0937 z m -150,5.4687 10,0 0,99.8438 c 0,0.087 0.07,0.1564 0.1563,0.1562 l -0.1563,0 c 0,2.7615 -2.2386,5 -5,5 -2.7614,0 -5,-2.2384 -5,-5 l -0.1563,0 c 0.087,0 0.1563,-0.07 0.1563,-0.1562 l 0,-99.8438 z"
         transform="translate(-790.47357,-500.38365)"
         id="rect4631-2-8-7-6-9-2"
         inkscape:connector-curvature="0" />
    </g>
  </g>
</svg>
