<?xml version="1.0" encoding="UTF-8" standalone="no"?>
<!-- Created with Inkscape (http://www.inkscape.org/) -->

<svg
   xmlns:dc="http://purl.org/dc/elements/1.1/"
   xmlns:cc="http://creativecommons.org/ns#"
   xmlns:rdf="http://www.w3.org/1999/02/22-rdf-syntax-ns#"
   xmlns:svg="http://www.w3.org/2000/svg"
   xmlns="http://www.w3.org/2000/svg"
   xmlns:sodipodi="http://sodipodi.sourceforge.net/DTD/sodipodi-0.dtd"
   xmlns:inkscape="http://www.inkscape.org/namespaces/inkscape"
   width="1200"
   height="800"
   id="svg3609"
   version="1.1"
   inkscape:version="0.48.5 r10040"
   sodipodi:docname="tryna01.svg"
   inkscape:export-filename="/Users/bdharva/Dropbox/Personal/website/assets/work/graphics/tryna01.png"
   inkscape:export-xdpi="90"
   inkscape:export-ydpi="90">
  <defs
     id="defs3611" />
  <sodipodi:namedview
     id="base"
     pagecolor="#ffffff"
     bordercolor="#666666"
     borderopacity="1.0"
     inkscape:pageopacity="0.0"
     inkscape:pageshadow="2"
     inkscape:zoom="1.055"
     inkscape:cx="481.04265"
     inkscape:cy="400"
     inkscape:current-layer="layer1"
     inkscape:document-units="px"
     showgrid="false"
     inkscape:window-width="1440"
     inkscape:window-height="856"
     inkscape:window-x="0"
     inkscape:window-y="1"
     inkscape:window-maximized="1" />
  <metadata
     id="metadata3614">
    <rdf:RDF>
      <cc:Work
         rdf:about="">
        <dc:format>image/svg+xml</dc:format>
        <dc:type
           rdf:resource="http://purl.org/dc/dcmitype/StillImage" />
        <dc:title></dc:title>
      </cc:Work>
    </rdf:RDF>
  </metadata>
  <g
     id="layer1"
     inkscape:label="Layer 1"
     inkscape:groupmode="layer"
     transform="translate(0,32)">
    <rect
       style="fill:#f2f2f2;fill-opacity:1;stroke:none"
       id="rect3783-0"
       width="1300"
       height="900"
       x="-50"
       y="-82" />
    <g
       id="g11455"
       inkscape:export-filename="/Users/bdharva/Dropbox/tryna_icons.png"
       inkscape:export-xdpi="208.75"
       inkscape:export-ydpi="208.75"
       transform="matrix(3,0,0,3,-5967.5636,7.1451028)">
      <g
         transform="matrix(2,0,0,2,-1822.4835,-334.79852)"
         id="g11343">
        <g
           transform="translate(302.08898,-187.48319)"
           id="g9772-0-7">
          <rect
             style="fill:#2ca089;fill-opacity:1;stroke:none"
             id="rect8156-7-5-2-8-8-2-9"
             width="57"
             height="55"
             x="1675.2467"
             y="388.52493"
             ry="10" />
          <rect
             style="fill:#37c8ab;fill-opacity:1;stroke:none"
             id="rect8156-7-5-2-8-8-2-9-2"
             width="57"
             height="55"
             x="1675.2467"
             y="386.52493"
             ry="10" />
          <g
             id="g9178-6-0-1-8"
             transform="matrix(0.62787736,0,0,0.62787736,840.53306,275.30402)"
             style="opacity:0.1;fill:#000000;fill-opacity:1">
            <path
               id="rect8156-7-6-6-4-6-0-9-1-6-7"
               d="m 1354.8125,200.375 c -5.5228,0 -10,4.47715 -10,10 0,5.52285 4.4772,10 10,10 l 10,0 c 1.3807,0 2.5,-1.11929 2.5,-2.5 0,-1.38071 -1.1193,-2.5 -2.5,-2.5 l -10,0 c -2.7614,0 -5,-2.23858 -5,-5 0,-2.76142 2.2386,-5 5,-5 l 40,0 c 2.7614,0 5,2.23858 5,5 0,2.76142 -2.2386,5 -5,5 l -12.5,0 c -5.5228,0 -10,4.47715 -10,10 l 0,5 c 0,1.38071 1.1193,2.5 2.5,2.5 1.3807,0 2.5,-1.11929 2.5,-2.5 l 0,-5 c 0,-2.76142 2.2386,-5 5,-5 l 12.5,0 c 5.5228,0 10,-4.47715 10,-10 0,-5.52285 -4.4772,-10 -10,-10 l -40,0 z"
               style="fill:#000000;fill-opacity:1;stroke:none"
               inkscape:connector-curvature="0" />
            <path
               sodipodi:type="arc"
               style="fill:#000000;fill-opacity:1;stroke:none"
               id="path8288-3-5-1-8-7-0-2-7-7-9-6-4-0-0"
               sodipodi:cx="1241.5844"
               sodipodi:cy="425.3129"
               sodipodi:rx="11.509815"
               sodipodi:ry="11.509815"
               d="m 1253.0942,425.3129 c 0,6.35669 -5.1532,11.50981 -11.5098,11.50981 -6.3567,0 -11.5099,-5.15312 -11.5099,-11.50981 0,-6.3567 5.1532,-11.50982 11.5099,-11.50982 6.3566,0 11.5098,5.15312 11.5098,11.50982 z"
               transform="matrix(0,0.21720592,0.21720592,0,1282.4441,-31.811368)" />
            <path
               sodipodi:type="arc"
               style="fill:#000000;fill-opacity:1;stroke:none"
               id="path8288-3-5-1-8-7-0-2-7-7-9-8-8-2-3-8"
               sodipodi:cx="1241.5844"
               sodipodi:cy="425.3129"
               sodipodi:rx="11.509815"
               sodipodi:ry="11.509815"
               d="m 1253.0942,425.3129 c 0,6.35669 -5.1532,11.50981 -11.5098,11.50981 -6.3567,0 -11.5099,-5.15312 -11.5099,-11.50981 0,-6.3567 5.1532,-11.50982 11.5099,-11.50982 6.3566,0 11.5098,5.15312 11.5098,11.50982 z"
               transform="matrix(0,0.21720592,0.21720592,0,1282.4441,-24.311368)" />
          </g>
          <g
             id="g9178-6-0-1"
             transform="matrix(0.62787736,0,0,0.62787736,840.53306,274.30408)"
             style="fill:#ffffff;fill-opacity:1">
            <path
               id="rect8156-7-6-6-4-6-0-9-1-6"
               d="m 1354.8125,200.375 c -5.5228,0 -10,4.47715 -10,10 0,5.52285 4.4772,10 10,10 l 10,0 c 1.3807,0 2.5,-1.11929 2.5,-2.5 0,-1.38071 -1.1193,-2.5 -2.5,-2.5 l -10,0 c -2.7614,0 -5,-2.23858 -5,-5 0,-2.76142 2.2386,-5 5,-5 l 40,0 c 2.7614,0 5,2.23858 5,5 0,2.76142 -2.2386,5 -5,5 l -12.5,0 c -5.5228,0 -10,4.47715 -10,10 l 0,5 c 0,1.38071 1.1193,2.5 2.5,2.5 1.3807,0 2.5,-1.11929 2.5,-2.5 l 0,-5 c 0,-2.76142 2.2386,-5 5,-5 l 12.5,0 c 5.5228,0 10,-4.47715 10,-10 0,-5.52285 -4.4772,-10 -10,-10 l -40,0 z"
               style="fill:#ffffff;fill-opacity:1;stroke:none"
               inkscape:connector-curvature="0" />
            <path
               sodipodi:type="arc"
               style="fill:#ffffff;fill-opacity:1;stroke:none"
               id="path8288-3-5-1-8-7-0-2-7-7-9-6-4-0"
               sodipodi:cx="1241.5844"
               sodipodi:cy="425.3129"
               sodipodi:rx="11.509815"
               sodipodi:ry="11.509815"
               d="m 1253.0942,425.3129 c 0,6.35669 -5.1532,11.50981 -11.5098,11.50981 -6.3567,0 -11.5099,-5.15312 -11.5099,-11.50981 0,-6.3567 5.1532,-11.50982 11.5099,-11.50982 6.3566,0 11.5098,5.15312 11.5098,11.50982 z"
               transform="matrix(0,0.21720592,0.21720592,0,1282.4441,-31.811368)" />
            <path
               sodipodi:type="arc"
               style="fill:#ffffff;fill-opacity:1;stroke:none"
               id="path8288-3-5-1-8-7-0-2-7-7-9-8-8-2-3"
               sodipodi:cx="1241.5844"
               sodipodi:cy="425.3129"
               sodipodi:rx="11.509815"
               sodipodi:ry="11.509815"
               d="m 1253.0942,425.3129 c 0,6.35669 -5.1532,11.50981 -11.5098,11.50981 -6.3567,0 -11.5099,-5.15312 -11.5099,-11.50981 0,-6.3567 5.1532,-11.50982 11.5099,-11.50982 6.3566,0 11.5098,5.15312 11.5098,11.50982 z"
               transform="matrix(0,0.21720592,0.21720592,0,1282.4441,-24.311368)" />
          </g>
        </g>
      </g>
    </g>
  </g>
</svg>
