<?xml version="1.0" encoding="UTF-8" standalone="no"?>
<!-- Created with Inkscape (http://www.inkscape.org/) -->

<svg
   xmlns:dc="http://purl.org/dc/elements/1.1/"
   xmlns:cc="http://creativecommons.org/ns#"
   xmlns:rdf="http://www.w3.org/1999/02/22-rdf-syntax-ns#"
   xmlns:svg="http://www.w3.org/2000/svg"
   xmlns="http://www.w3.org/2000/svg"
   xmlns:sodipodi="http://sodipodi.sourceforge.net/DTD/sodipodi-0.dtd"
   xmlns:inkscape="http://www.inkscape.org/namespaces/inkscape"
   id="svg4755"
   version="1.1"
   inkscape:version="0.48.5 r10040"
   width="44"
   height="36"
   xml:space="preserve"
   sodipodi:docname="twitter.svg"><metadata
     id="metadata4761"><rdf:RDF><cc:Work
         rdf:about=""><dc:format>image/svg+xml</dc:format><dc:type
           rdf:resource="http://purl.org/dc/dcmitype/StillImage" /><dc:title /></cc:Work></rdf:RDF></metadata><defs
     id="defs4759"><clipPath
       clipPathUnits="userSpaceOnUse"
       id="clipPath4771"><path
         d="M 0,3153.92 0,0 l 4497.61,0 0,3153.92 -4497.61,0 z"
         id="path4773"
         inkscape:connector-curvature="0" /></clipPath></defs><sodipodi:namedview
     pagecolor="#ffffff"
     bordercolor="#666666"
     borderopacity="1"
     objecttolerance="10"
     gridtolerance="10"
     guidetolerance="10"
     inkscape:pageopacity="0"
     inkscape:pageshadow="2"
     inkscape:window-width="1920"
     inkscape:window-height="1031"
     id="namedview4757"
     showgrid="false"
     inkscape:zoom="9.9584205"
     inkscape:cx="3.0840319"
     inkscape:cy="30"
     inkscape:window-x="0"
     inkscape:window-y="1"
     inkscape:window-maximized="1"
     inkscape:current-layer="g4763" /><g
     id="g4763"
     inkscape:groupmode="layer"
     inkscape:label="ink_ext_XXXXXX"
     transform="matrix(1.25,0,0,-1.25,0,36.000012)"><path
       style="fill:#ffffff"
       d="m 10.902638,4.9715029 c -1.2003829,0.2021233 -2.6200216,0.683194 -3.8897849,1.3181253 -0.58541,0.2927247 -1.06406,0.5518547 -1.0636667,0.5758427 3.927e-4,0.023987 0.5960947,0.060153 1.3237827,0.080369 1.622474,0.045073 3.4607189,0.5843873 4.6915719,1.376438 l 0.925549,0.5955886 -0.700178,0.150902 c -0.955616,0.2059537 -1.773684,0.6402483 -2.5087603,1.3318465 -0.9557186,0.899192 -1.5101026,2.1504 -0.8386286,1.892731 0.1663833,-0.06385 0.58623,-0.06286 0.932992,0.0022 l 0.6304779,0.118278 -0.8970079,0.41559 c -1.130468,0.523754 -2.1923807,1.751466 -2.54658,2.944184 -0.2683833,0.903742 -0.34162,1.409088 -0.2042127,1.409088 0.038107,0 0.4234254,-0.124949 0.856268,-0.277665 1.1450347,-0.403991 1.25033,-0.348219 0.611596,0.323943 -0.9721653,1.023044 -1.4186786,2.114927 -1.4193486,3.470809 -3.934e-4,0.775589 0.1112926,1.415958 0.3142226,1.801813 l 0.3148174,0.5986 0.681526,-0.754368 c 1.9390582,-2.14629 6.2205532,-4.21686 8.7557622,-4.234352 0.44422,-0.0031 0.465859,0.04633 0.465859,1.063562 0,4.005055 4.616862,6.255011 7.820722,3.811309 0.593201,-0.452457 0.681355,-0.468455 1.401034,-0.254266 0.422402,0.125715 1.080377,0.378716 1.462166,0.562224 0.381789,0.18351 0.694162,0.296244 0.694162,0.250523 0,-0.325719 -0.827173,-1.589331 -1.301854,-1.988749 -0.657103,-0.552917 -0.449819,-0.605559 0.847301,-0.215184 0.49503,0.148982 0.93837,0.232559 0.985202,0.185727 0.04683,-0.04683 -0.428251,-0.598551 -1.055743,-1.226043 -1.040031,-1.040029 -1.140895,-1.210479 -1.140895,-1.927987 0,-1.15819 -0.454481,-3.325724 -1.001279,-4.775346 C 24.653256,9.8950775 21.438073,6.7268475 17.875955,5.5428422 15.729458,4.8293716 13.05038,4.6098762 10.902638,4.9715209 z"
       id="path3157-9"
       inkscape:connector-curvature="0" /></g></svg>