<?xml version="1.0" encoding="UTF-8" standalone="no"?>
<!-- Created with Inkscape (http://www.inkscape.org/) -->

<svg
   xmlns:dc="http://purl.org/dc/elements/1.1/"
   xmlns:cc="http://creativecommons.org/ns#"
   xmlns:rdf="http://www.w3.org/1999/02/22-rdf-syntax-ns#"
   xmlns:svg="http://www.w3.org/2000/svg"
   xmlns="http://www.w3.org/2000/svg"
   xmlns:sodipodi="http://sodipodi.sourceforge.net/DTD/sodipodi-0.dtd"
   xmlns:inkscape="http://www.inkscape.org/namespaces/inkscape"
   width="24"
   height="24"
   id="svg2"
   version="1.1"
   inkscape:version="0.48.5 r10040"
   sodipodi:docname="New document 1">
  <defs
     id="defs4" />
  <sodipodi:namedview
     id="base"
     pagecolor="#ffffff"
     bordercolor="#666666"
     borderopacity="1.0"
     inkscape:pageopacity="0.0"
     inkscape:pageshadow="2"
     inkscape:zoom="27.708333"
     inkscape:cx="12"
     inkscape:cy="12"
     inkscape:document-units="px"
     inkscape:current-layer="layer1"
     showgrid="false"
     inkscape:window-width="1440"
     inkscape:window-height="851"
     inkscape:window-x="0"
     inkscape:window-y="1"
     inkscape:window-maximized="1" />
  <metadata
     id="metadata7">
    <rdf:RDF>
      <cc:Work
         rdf:about="">
        <dc:format>image/svg+xml</dc:format>
        <dc:type
           rdf:resource="http://purl.org/dc/dcmitype/StillImage" />
        <dc:title></dc:title>
      </cc:Work>
    </rdf:RDF>
  </metadata>
  <g
     inkscape:label="Layer 1"
     inkscape:groupmode="layer"
     id="layer1"
     transform="translate(0,-1028.3622)">
    <path
       style="fill:#000000"
       d="m 8.6015605,1050.5139 c -0.531774,-0.04 -1.39274,-0.1668 -1.898438,-0.2792 -3.824762,-0.8505 -6.08007,-3.3768 -6.585606,-7.3769 -0.21745,-1.7206 -0.113149,-3.2056 0.309423,-4.4055 0.261476,-0.7425 0.847776,-1.7341 1.325201,-2.2412 l 0.145467,-0.1545 -0.01498,-0.9471 c -0.02424,-1.532 0.209335,-2.9542 0.727273,-4.4283 l 0.169117,-0.4814 0.169085,0.028 c 0.36333,0.06 1.369314,0.3705 1.926898,0.595 1.040009,0.4187 2.477811,1.1816 3.416857,1.813 l 0.406593,0.2734 0.440547,-0.085 c 0.756894,-0.1454 1.5743555,-0.2036 2.8610025,-0.2036 1.286647,0 2.104109,0.058 2.861003,0.2036 l 0.440547,0.085 0.406592,-0.2734 c 0.939047,-0.6314 2.376849,-1.3943 3.416858,-1.813 0.557584,-0.2245 1.563568,-0.5351 1.926898,-0.595 l 0.169085,-0.028 0.169117,0.4814 c 0.517938,1.4741 0.75151,2.8963 0.727272,4.4283 l -0.01498,0.9471 0.145467,0.1545 c 0.477425,0.5071 1.063725,1.4987 1.325201,2.2412 0.422572,1.1999 0.526873,2.6849 0.309423,4.4055 -0.302514,2.3937 -1.252987,4.305 -2.77256,5.5752 -1.272981,1.0642 -2.814725,1.6948 -4.891171,2.0008 -0.463086,0.068 -1.02135,0.081 -3.960938,0.089 -1.882031,0 -3.5273425,10e-4 -3.6562495,-0.01 z m 6.5625005,-1.2502 c 1.957291,-0.245 3.02673,-0.5997 3.9958,-1.3253 0.836552,-0.6264 1.389903,-1.658 1.559504,-2.9074 0.07573,-0.5579 0.03673,-1.7186 -0.07066,-2.1029 -0.334482,-1.1967 -1.19059,-2.1986 -2.204931,-2.5804 -0.53114,-0.1999 -0.894582,-0.2591 -1.756274,-0.2861 -0.578964,-0.018 -1.26304,0 -2.325086,0.073 -1.891896,0.1238 -2.832933,0.1238 -4.7248285,0 -1.663127,-0.1088 -2.912051,-0.1003 -3.455068,0.024 -1.158532,0.2642 -1.983578,0.9174 -2.529016,2.0022 -0.300679,0.5981 -0.379807,0.9454 -0.406672,1.7853 -0.03587,1.1214 0.118481,1.909 0.531436,2.712 0.788172,1.5326 2.44045,2.3542 5.268609,2.6196 0.296484,0.028 0.644531,0.058 0.773437,0.068 0.128907,0.01 1.2574225,0.011 2.5078135,0 1.669005,-0.01 2.422987,-0.033 2.835938,-0.084 z m -7.5234385,-2.5138 c -0.494355,-0.1002 -0.89125,-0.4404 -1.163324,-0.9974 -0.222165,-0.4548 -0.299176,-0.7957 -0.299176,-1.3244 0,-0.5287 0.07701,-0.8696 0.299176,-1.3244 0.505371,-1.0345 1.505101,-1.3149 2.283057,-0.6403 0.861485,0.7471 1.033979,2.4483 0.356307,3.5142 -0.3547,0.5578 -0.963079,0.8761 -1.47604,0.7723 z m 8.2968755,0 c -0.57961,-0.1174 -1.065358,-0.6035 -1.307626,-1.3085 -0.535515,-1.5584 0.274174,-3.34 1.517566,-3.3393 0.569678,4e-4 1.060917,0.3582 1.375259,1.0016 0.222165,0.4548 0.299176,0.7957 0.299176,1.3244 0,0.5287 -0.07701,0.8696 -0.299176,1.3244 -0.350564,0.7177 -0.987509,1.1184 -1.585199,0.9974 z"
       id="path3850"
       inkscape:connector-curvature="0" />
  </g>
</svg>
