<?xml version="1.0" encoding="UTF-8" standalone="no"?>
<!-- Created with Inkscape (http://www.inkscape.org/) -->

<svg
   xmlns:dc="http://purl.org/dc/elements/1.1/"
   xmlns:cc="http://creativecommons.org/ns#"
   xmlns:rdf="http://www.w3.org/1999/02/22-rdf-syntax-ns#"
   xmlns:svg="http://www.w3.org/2000/svg"
   xmlns="http://www.w3.org/2000/svg"
   xmlns:sodipodi="http://sodipodi.sourceforge.net/DTD/sodipodi-0.dtd"
   xmlns:inkscape="http://www.inkscape.org/namespaces/inkscape"
   width="24"
   height="24"
   id="svg2"
   version="1.1"
   inkscape:version="0.48.5 r10040"
   sodipodi:docname="New document 1">
  <defs
     id="defs4" />
  <sodipodi:namedview
     id="base"
     pagecolor="#ffffff"
     bordercolor="#666666"
     borderopacity="1.0"
     inkscape:pageopacity="0.0"
     inkscape:pageshadow="2"
     inkscape:zoom="0.35"
     inkscape:cx="16.428571"
     inkscape:cy="520"
     inkscape:document-units="px"
     inkscape:current-layer="layer1"
     showgrid="false"
     inkscape:window-width="1440"
     inkscape:window-height="851"
     inkscape:window-x="0"
     inkscape:window-y="1"
     inkscape:window-maximized="1" />
  <metadata
     id="metadata7">
    <rdf:RDF>
      <cc:Work
         rdf:about="">
        <dc:format>image/svg+xml</dc:format>
        <dc:type
           rdf:resource="http://purl.org/dc/dcmitype/StillImage" />
        <dc:title></dc:title>
      </cc:Work>
    </rdf:RDF>
  </metadata>
  <g
     inkscape:label="Layer 1"
     inkscape:groupmode="layer"
     id="layer1"
     transform="translate(0,-1028.3622)">
    <g
       id="g2996"
       transform="matrix(0.01499939,0,0,0.01499939,5.2717077,1032.9354)">
      <path
         style="fill:#d5d5d5"
         d="m 82.07144,1294.5868 c -1.65,-0.1917 -8.625,-0.8493 -15.5,-1.4614 -30.47757,-2.7135 -66.61038,-10.4668 -99.68054,-21.3892 -77.68077,-25.6566 -147.43215,-71.871 -202.27145,-134.0169 -67.4023,-76.3828 -107.70314,-171.65967 -115.05227,-271.99997 -0.77772,-10.6185 -1.0037,-121.6171 -0.77361,-380 0.35555,-399.2683 -0.0981,-367.71611 5.79235,-402.89291 13.82693,-82.57249 50.27826,-160.39639 105.43615,-225.10709 11.14096,-13.07047 34.1439,-36.19959 48.54937,-48.81567 65.41914,-57.29305 147.52677,-95.47278 233.5,-108.57658 31.50079,-4.80126 14.38689,-4.60775 407.5,-4.60775 406.2382,0 375.6715,-0.41519 411.9021,5.59493 192.36716,31.91086 347.41926,186.11758 380.47936,378.40507 6.6307,38.56588 6.1185,3.90754 6.1185,414 0,402.0439 0.3361,377.2938 -5.6141,413.4772 -13.9849,85.0437 -52.2935,165.39127 -109.9098,230.52277 -56.7843,64.1908 -129.1065,111.2488 -209.97606,136.6253 -26.1142,8.1945 -54.7922,14.3272 -87,18.6046 -11.4346,1.5187 -43.9495,1.674 -381.5,1.8232 -202.95,0.09 -370.35,0.01 -372,-0.1856 z m 748,-125.6552 c 65.8649,-10.2028 118.7093,-33.0581 169,-73.0926 12.65766,-10.0764 40.74406,-38.1865 50.57686,-50.6197 22.6783,-28.6757 39.1446,-57.04437 51.6844,-89.04367 14.7198,-37.5623 21.419,-70.6009 23.3097,-114.9563 1.5509,-36.3857 0.6768,-702.18316 -0.9387,-715 -5.0933,-40.4074 -13.296,-71.9175 -26.808,-102.98049 -16.6458,-38.26766 -38.6236,-70.88441 -68.3202,-101.39274 -54.06456,-55.5424 -121.47696,-89.47167 -199.00406,-100.16058 -24.0141,-3.31091 -57.1787,-3.57872 -400.5,-3.2342 -371.55937,0.37287 -346.29001,-0.0182 -378,5.85039 -58.70966,10.8655 -111.09768,35.3955 -157.22617,73.61909 -13.11307,10.86592 -38.76286,37.26984 -48.89305,50.33054 -40.71515,52.49347 -62.54487,106.81908 -71.51306,177.96799 -1.62463,12.88893 -2.48926,678.7388 -0.92846,715 1.49365,34.7009 5.10697,57.7279 13.70712,87.3526 11.72591,40.3919 32.98775,81.17367 60.10452,115.28507 10.88699,13.6952 38.63239,41.5731 51.7491,51.9962 33.63985,26.7316 65.44238,44.2375 104.5,57.5227 26.74589,9.0975 50.13574,14.0591 81,17.1824 1.925,0.1948 168.2,0.2919 369.5,0.2157 339.4156,-0.1284 366.799,-0.2623 377,-1.8424 z m -415.5,-243.83717 C 295.81559,915.51893 186.98938,857.45763 111.64758,763.47753 15.28608,643.27779 -9.12321,480.18986 47.79605,336.86067 91.61866,226.51035 179.73549,138.33607 290.14685,94.35184 324.82121,80.53873 361.49338,71.35687 401.07144,66.5789 c 21.29889,-2.57125 73.70111,-2.57125 95,0 63.59722,7.67762 120.62551,27.04113 174,59.08035 75.3354,45.22173 137.3561,115.24608 172.3222,194.56008 33.5307,76.05795 44.4516,155.52784 32.6379,237.5 -16.4302,114.00487 -79.4753,217.7566 -174.137,286.5726 -64.58502,46.9512 -139.99751,74.5982 -220.71832,80.9178 -14.97422,1.1724 -50.40752,1.1101 -65.60478,-0.1153 z m 62.14405,-123.8921 c 49.73929,-4.8848 95.72969,-20.4264 135.90769,-45.9275 76.74086,-48.7076 126.67006,-125.68925 140.07366,-215.96798 2.9582,-19.9243 3.6203,-54.70637 1.443,-75.80207 -14.0865,-136.48439 -115.27225,-245.81473 -250.5684,-270.73696 -24.87062,-4.58129 -60.89231,-5.81759 -87.77844,-3.01263 -49.25466,5.13861 -95.63024,21.72539 -136.72156,48.90009 -77.15855,51.02685 -126.55246,132.64898 -136.06845,224.8495 -2.00581,19.43435 -1.49727,55.53055 1.03852,73.71455 13.98593,100.29223 75.37319,186.4514 165.40507,232.1518 33.78455,17.1491 70.52233,27.7957 109.62486,31.7692 11.77178,1.1962 45.72272,1.2327 57.64405,0.062 z M 892.57144,124.77819 c -38.0343,-8.04729 -66.4132,-36.94713 -73.7058,-75.05886 -2.0362,-10.64084 -1.2743,-29.01917 1.6582,-40 6.7101,-25.12642 25.1213,-47.51287 48.5476,-59.02986 14.6607,-7.20756 22.218,-8.83633 41,-8.83633 18.7675,0 26.3125,1.62373 41,8.82342 23.4209,11.48074 41.3507,33.2272 48.6804,59.04277 1.91296,6.7375 2.27516,10.44609 2.29546,23.5 0.02,13.07833 -0.332,16.80249 -2.25516,23.83663 -8.9218,32.63146 -33.6265,57.40105 -66.1209,66.29454 -9.8009,2.68242 -31.5919,3.43938 -41.0998,1.42769 z"
         id="path3010"
         inkscape:connector-curvature="0" />
      <path
         style="fill:#aeaeae"
         d="m 77.57144,1294.1464 c -44.60066,-3.4205 -92.84368,-14.5963 -135.5,-31.3894 -17.64649,-6.9472 -53.95775,-25.1149 -69.97805,-35.0124 -60.22379,-37.2068 -110.28697,-85.6771 -147.8081,-143.1052 -43.56751,-66.6823 -68.37932,-139.69747 -74.697,-219.81527 -1.39984,-17.7521 -1.39984,-721.45749 0,-739.20958 6.9915,-88.66288 37.60096,-171.07611 89.68973,-241.48159 25.92153,-35.03668 63.27691,-72.50269 97.29342,-97.58156 58.98258,-43.48524 127.09787,-72.78251 197,-84.73224 38.24426,-6.53784 5.01299,-6.01331 404.5,-6.38466 261.286,-0.24288 366.4514,-0.0233 378,0.78932 95.6513,6.73035 183.2197,41.11544 259.17346,101.76849 18.5781,14.8356 52.3923,48.09702 66.3111,65.22702 63.3213,77.93016 98.2758,164.45846 105.9985,262.39522 1.3979,17.72678 1.4,721.44498 0,739.20958 -3.705,47.088 -13.8845,91.8762 -30.6594,134.8952 -7.4272,19.04697 -25.302,54.98457 -35.8007,71.97807 -59.2393,95.886 -146.31,165.0827 -252.23846,200.4586 -21.9345,7.3253 -53.5929,14.9362 -75.2868,18.0996 -31.7441,4.6288 -6.1197,4.338 -398.5,4.523 -201.85,0.095 -371.725,-0.1893 -377.5,-0.6322 z m 726.3988,-122.9484 c 30.069,-1.9181 54.7729,-6.3556 81.6012,-14.6576 87.5377,-27.0885 159.53296,-87.3717 201.62026,-168.82107 19.8822,-38.4769 30.9865,-76.1062 36.5922,-124 1.027,-8.7748 1.2875,-83.2193 1.2875,-368 0,-383.32674 0.2525,-363.69755 -5.0876,-395.49177 -14.692,-87.47461 -65.7312,-168.17025 -138.73336,-219.34473 -48.1189,-33.73134 -99.7282,-53.22984 -159.679,-60.32824 -14.7636,-1.74806 -32.509,-1.83526 -373.5,-1.83526 -336.36027,0 -358.87647,0.10699 -372.5,1.76994 -80.43748,9.81856 -148.88068,42.60653 -204.0021,97.72796 -59.23243,59.23242 -93.55069,136.03511 -98.97529,221.5021 -1.3917,21.92693 -1.3917,689.0731 0,711 0.55854,8.8 1.92748,22.3 3.04209,30 18.8072,129.92417 110.47097,237.07977 235.9353,275.81017 25.42725,7.8493 52.89263,12.9273 78.94211,14.5954 19.11844,1.2243 694.32649,1.2934 713.45669,0.073 z M 416.07144,925.07793 C 315.6087,917.20613 221.07088,874.39543 149.19059,804.22293 111.89786,767.81613 85.1822,731.46353 62.83675,686.71933 -2.81322,555.26267 3.36263,399.61766 79.22516,273.69549 111.30961,220.43937 158.4631,171.01871 210.07144,136.55805 239.47438,116.92469 274.17157,99.65124 306.95014,88.3285 380.37258,62.96611 455.90105,57.56391 531.20706,72.28846 637.8271,93.13581 732.61524,153.99417 797.91864,243.5296 c 25.3109,34.70294 47.1716,77.74794 60.6923,119.50656 46.7527,144.39507 13.9811,301.91222 -86.5871,416.18317 -62.095,70.5556 -144.19719,118.5483 -235.9524,137.9256 -37.38348,7.8949 -82.45725,10.8746 -120,7.933 z m 75.5,-125.3162 c 15.07665,-2.3871 28.78196,-5.2978 40.6919,-8.642 55.05721,-15.4598 105.17454,-46.2517 143.0678,-87.9004 40.3726,-44.37376 66.2629,-97.37229 76.2076,-156 3.0532,-18.00014 4.0327,-30.63028 4.0327,-52 0,-21.35402 -0.9777,-33.97493 -4.0284,-52 -20.4079,-120.58134 -109.66781,-216.83002 -228.4716,-246.36022 -24.90851,-6.19133 -46.02125,-8.63978 -74.5,-8.63978 -42.14428,0 -77.49425,6.64068 -114.61867,21.53171 -101.45946,40.69657 -172.76801,130.81489 -189.48264,239.46439 -2.63024,17.0972 -3.6951,56.91226 -1.99322,74.52576 5.60935,58.05354 26.12102,111.22851 60.50036,156.84262 51.33596,68.11202 127.40298,110.95992 214.09417,120.59752 13.05464,1.4513 62.29364,0.513 74.5,-1.4196 z m 401.8345,-675.04079 c -19.3838,-3.67977 -37.0582,-13.4339 -50.6289,-27.94097 -7.7243,-8.25734 -11.3404,-13.558 -16.237,-23.80123 -6.5803,-13.76525 -8.2943,-21.87841 -8.2943,-39.25941 0,-17.4307 1.712,-25.49032 8.3754,-39.42838 5.4338,-11.36612 11.2592,-19.27841 20.7254,-28.15018 35.6718,-33.43153 90.1687,-33.23232 125.9118,0.46027 13.1655,12.41027 21.2417,25.89762 26.5281,44.30264 3.18846,11.10107 3.16486,34.07266 -0.047,45.81565 -2.7053,9.89046 -8.8439,22.89794 -14.5959,30.92838 -5.0423,7.03954 -15.9452,17.74484 -22.8987,22.48378 -7.1183,4.85122 -20.528,10.87009 -29.3895,13.19128 -10.3256,2.70472 -29.0678,3.36898 -39.4493,1.39817 z"
         id="path3008"
         inkscape:connector-curvature="0" />
      <path
         style="fill:#909090"
         d="m 79.07144,1294.1203 c -58.02874,-4.3104 -118.11658,-20.6216 -169.7741,-46.086 -123.61894,-60.9376 -214.38421,-173.3156 -247.19794,-306.05977 -5.09991,-20.6312 -8.66117,-40.5494 -11.25606,-62.9554 -1.66498,-14.3766 -1.7719,-37.5353 -1.7719,-383.7998 0,-406.58364 -0.4535,-375.4608 6.02959,-413.79982 19.52788,-115.48189 84.36369,-221.51397 178.97041,-292.68708 72.79419,-54.76343 155.74912,-85.82393 247,-92.48327 19.27853,-1.40691 715.7215,-1.40691 735,0 61.631,4.49773 116.1821,19.16586 171,45.97989 46.33276,22.66352 84.42616,49.48915 121.35316,85.45769 69.8298,68.01716 117.2981,158.14669 133.5857,253.64289 6.4654,37.90735 5.9739,6.62589 6.3454,403.8897 0.2433,260.1863 0.024,364.9522 -0.7888,376.5 -6.3467,90.1975 -37.0821,173.29727 -91.0194,246.09087 -24.9685,33.6974 -59.9105,68.6911 -94.4761,94.6158 -71.65496,53.7422 -155.99476,85.2032 -245.99996,91.7646 -16.9619,1.2365 -720.31038,1.1694 -737,-0.07 z m 727.5,-122.9092 c 30.8216,-2.2906 56.4166,-7.1372 82.5,-15.6222 65.9429,-21.4512 122.08706,-60.6181 164.14196,-114.5077 36.3279,-46.55087 59.792,-101.49787 68.4062,-160.18997 4.0172,-27.3715 4.0874,-34.8103 3.7445,-397.1719 -0.3676,-388.62551 0.1955,-356.526 -6.877,-392 -17.2038,-86.28992 -66.9902,-162.23415 -139.41566,-212.66459 -37.1774,-25.88693 -82.3368,-45.03515 -126.8416,-53.78263 -36.074,-7.09042 -2.955,-6.55278 -403.6584,-6.55278 -398.62488,0 -367.27126,-0.47937 -402,6.14622 -81.48602,15.546 -155.65377,61.94403 -206.04639,128.89895 -40.75368,54.14802 -63.78586,116.96803 -67.99469,185.45483 -1.59601,25.97057 -0.77693,716.3645 0.86369,728 5.65227,40.0863 12.78803,67.3756 25.46953,97.4031 37.42175,88.60787 111.69662,157.79517 202.66133,188.77957 29.07665,9.9041 61.74077,16.3353 92.04653,18.1229 15.16295,0.8944 700.8031,0.5927 713,-0.3138 z m -387.5,-246.10057 C 334.68871,919.31423 250.98622,887.17143 184.32416,834.96473 112.89367,779.02363 59.81234,701.23783 35.15502,616.37092 23.03149,574.6435 18.22044,540.45268 18.17792,495.71933 c -0.02785,-29.29185 0.68243,-39.55977 4.53092,-65.5 15.21636,-102.56375 70.08965,-199.20653 151.3626,-266.57969 112.31958,-93.10999 263.21605,-123.11105 402,-79.92517 145.8391,45.38127 258.191,166.54699 292.4138,315.35327 7.7024,33.49142 10.466,58.88058 10.466,96.15159 0,29.81215 -1.2601,46.18652 -5.4775,71.17996 -19.7824,117.23529 -87.3264,221.05874 -186.9023,287.29214 -79.74472,53.0426 -172.91048,77.9167 -267.5,71.4191 z m 60,-123.9682 c 57.3915,-4.9902 116.83771,-29.2982 163.51375,-66.8621 46.99865,-37.8235 83.88895,-93.21478 100.95935,-151.59154 8.4999,-29.06781 12.1996,-55.59423 12.1996,-87.46936 0,-31.87513 -3.6997,-58.40155 -12.1996,-87.46936 -27.8226,-95.14679 -100.89586,-171.4824 -194.9731,-203.67752 -10.92076,-3.73731 -32.1129,-9.29368 -43,-11.27417 -35.19783,-6.40293 -79.08011,-6.39736 -114,0.0145 -93.69222,17.2033 -175.02715,78.36695 -217.72327,163.7273 -22.10432,44.19212 -32.47086,88.46639 -32.47086,138.67925 0,31.78801 3.71588,58.38352 12.22107,87.46936 10.86818,37.16674 30.65064,74.99871 55.45075,106.044 10.34465,12.94964 33.3258,35.94964 46.00358,46.04144 40.16952,31.9755 88.20717,53.9149 137.51873,62.8065 28.92192,5.215 55.0922,6.2926 86.5,3.5617 z m 415.2399,-676.43659 c -36.7897,-6.97833 -64.9878,-33.35728 -73.9561,-69.18506 -3.1304,-12.50538 -3.0751,-32.28319 0.1238,-44.30085 7.2268,-27.15024 25.2354,-49.03317 50.1566,-60.94729 13.9456,-6.667 22.0029,-8.37894 39.4358,-8.37894 12.2771,0 16.4522,0.39446 23,2.17302 26.6452,7.23757 48.4888,25.31716 60.1661,49.79853 6.88296,14.43019 8.62836,22.30587 8.72136,39.35418 0.066,12.15118 -0.2914,15.86607 -2.20846,22.93317 -9.0647,33.41546 -34.874,59.18437 -67.179,67.07397 -11.2598,2.74988 -28.1239,3.40191 -38.2601,1.47927 z"
         id="path3006"
         inkscape:connector-curvature="0" />
      <path
         style="fill:#6f6f6f"
         d="m 80.64784,1294.0939 c -110.41877,-7.4489 -216.13378,-55.8436 -295.62061,-135.3304 -80.34397,-80.344 -127.53613,-184.02827 -135.42795,-297.54417 -1.38111,-19.866 -1.38111,-712.13402 0,-732 2.8584,-41.11517 9.96227,-77.04405 22.93556,-116 13.86495,-41.63342 30.98917,-76.2474 56.15067,-113.5 72.93167,-107.97825 188.90033,-181.0727 316.38593,-199.41643 7.7,-1.10794 18.275,-2.56034 23.5,-3.22755 13.12007,-1.67537 716.8513,-2.50194 743.44,-0.87321 83.6339,5.12312 160.6754,31.17482 230.55996,77.96426 73.449,49.1759 132.5804,120.19209 167.8222,201.55293 20.9233,48.30469 33.4247,99.96013 37.1493,153.5 1.3823,19.87025 1.3823,712.1297 0,732 -9.4554,135.9196 -76.1348,258.54987 -185.4715,341.10147 -71.22846,53.779 -157.90166,85.887 -247.99996,91.8713 -18.4617,1.2262 -715.17395,1.1329 -733.4236,-0.098 z m 728.5284,-122.9045 c 100.6464,-8.0387 188.4028,-55.9804 248.31596,-135.6563 39.745,-52.85507 62.473,-114.58117 67.1292,-182.31377 1.5937,-23.1818 0.7665,-719.44632 -0.8684,-731 -4.2732,-30.19879 -8.5285,-49.1812 -16.1222,-71.91962 -38.4262,-115.06214 -136.22036,-201.36038 -255.05936,-225.07668 -35.2473,-7.03419 -2.2944,-6.5037 -404,-6.5037 -342.644,0 -362.23025,0.0941 -375.5,1.80499 -79.46386,10.24513 -146.19229,42.48957 -201.08559,97.16837 -55.94192,55.72332 -88.85821,124.50259 -98.59996,206.02664 -1.93963,16.23183 -1.93963,726.7682 0,743 3.25834,27.2675 9.05941,53.3416 16.88224,75.8808 44.58604,128.46147 159.48603,217.31647 295.46633,228.49137 15.45985,1.2705 707.58778,1.3641 723.44178,0.098 z M 420.07144,925.13223 C 255.65599,913.98723 110.79622,808.66853 48.82191,655.21933 34.05392,618.6536 24.59879,580.30698 19.92384,538.01915 c -2.31792,-20.96703 -2.31792,-64.63261 0,-85.59964 C 26.69998,391.12516 44.46873,335.01031 73.02606,284.71933 158.44072,134.29954 321.90602,49.3896 492.57144,66.79189 c 71.90718,7.33219 142.54755,33.58113 201.3526,74.81973 38.8014,27.21048 75.7541,63.37767 102.793,100.60771 45.3054,62.38123 71.8625,131.73234 80.4935,210.20018 2.3033,20.94063 2.3033,64.65901 0,85.59964 -9.8266,89.33745 -42.7942,166.66638 -100.486,235.70018 -9.5554,11.434 -37.9018,39.7632 -49.6531,49.6231 -68.1739,57.2008 -147.8309,91.2061 -235.12228,100.373 -18.70824,1.9646 -53.63821,2.6531 -71.87772,1.4168 z m 48,-122.9558 c 55.72932,-3.7598 106.41067,-20.8342 151.69666,-51.1063 120.70444,-80.68671 168.13204,-234.0142 114.55774,-370.3508 -35.4227,-90.14427 -114.55836,-159.73647 -208.6237,-183.46456 -26.82126,-6.76569 -48.06472,-9.33742 -77.1307,-9.33742 -22.39423,0 -34.61247,0.99311 -54,4.38915 -108.79392,19.05703 -198.74129,94.95331 -235.68226,198.86522 -12.32545,34.67048 -17.68213,66.46427 -17.61437,104.54761 0.0564,31.70301 3.48017,56.60638 11.71639,85.22124 35.68812,123.99016 145.3815,212.49746 274.1279,221.18306 17.39683,1.1736 24.20893,1.1824 40.95234,0.053 z m 429.021,-677.10422 c -9.843,-1.26104 -25.116,-6.74302 -34.7508,-12.47317 -10.931,-6.50103 -24.6489,-20.21893 -31.1499,-31.14991 -32.3885,-54.45877 -3.1772,-122.85865 58.8797,-137.86988 9.8004,-2.37066 29.571,-2.38595 39.714,-0.0307 64.2262,14.9135 93.07186,87.50501 56.4945,142.17081 -5.8762,8.78207 -19.1038,21.24769 -28.5227,26.87971 -10.0641,6.01772 -24.9338,11.18862 -36.1596,12.5743 -9.6431,1.19033 -14.584,1.16994 -24.5052,-0.10113 z"
         id="path3004"
         inkscape:connector-curvature="0" />
      <path
         style="fill:#4f4f4f"
         d="m 83.57144,1294.1348 c -87.26774,-5.5244 -171.50722,-35.9954 -243.11204,-87.9382 -98.40639,-71.3848 -165.5536,-179.7006 -185.34231,-298.97727 -6.37619,-38.4325 -5.88529,-7.2801 -6.28745,-399 -0.25175,-245.22291 -0.0324,-362.167 0.70284,-374.65544 6.73813,-114.45526 53.85458,-219.80958 134.53896,-300.83466 70.88509,-71.1844 160.43903,-116.98815 258,-131.95809 34.51362,-5.29584 9.64826,-4.9599 394,-5.32301 368.6543,-0.34828 375.3546,-0.28535 407.4824,3.8269 102.1917,13.08022 195.34366,59.1215 269.01756,132.96464 80.7398,80.9253 127.9005,185.7433 134.9697,299.97966 1.3963,22.56399 1.4019,703.309 0.01,726 -9.0267,146.73137 -85.8526,279.26327 -208.9756,360.50247 -67.48606,44.5287 -144.96186,70.2796 -226.99996,75.4486 -19.6172,1.236 -708.44446,1.2023 -728,-0.036 z m 745.7122,-124.6885 c 22.0593,-3.2003 41.3805,-7.6214 60.7878,-13.9096 93.3352,-30.242 169.50776,-99.7774 208.00586,-189.88157 12.8294,-30.027 21.1674,-61.9739 25.6913,-98.4358 1.9294,-15.5502 1.9182,-728.34988 -0.012,-744.5 -9.8082,-82.08016 -44.6725,-153.30064 -102.311,-209 -52.43496,-50.67089 -116.97986,-81.83899 -191.97496,-92.70277 l -15.3996,-2.23078 -356,-0.34058 c -255.21857,-0.24417 -360.10445,-0.0252 -370.4996,0.77344 -81.96511,6.29735 -154.94554,39.12632 -213.34062,95.96753 -56.56853,55.06327 -91.12291,126.17423 -100.84493,207.53316 -1.93968,16.23223 -1.93968,728.7678 0,745 8.09028,67.7037 32.15645,125.7358 73.8174,177.99997 11.25309,14.1171 36.75101,39.6151 50.86815,50.8681 55.76032,44.4478 119.5823,69.4277 191.5,74.9528 2.475,0.1902 166.5,0.2934 364.5,0.2294 l 360,-0.1163 15.2122,-2.207 z M 424.07144,925.12953 C 275.38143,916.70313 141.29707,831.12413 69.33425,698.71933 17.34269,603.05977 4.1861,487.84589 33.16421,381.97391 64.94436,265.86466 144.8981,167.49124 252.57144,112.01981 c 89.89131,-46.31044 193.90787,-59.20092 293,-36.31067 166.1793,38.38737 295.8189,174.03808 326.3767,341.51019 16.8801,92.51172 3.799,185.41782 -37.8751,269 -21.7399,43.602 -47.5532,79.3159 -82.414,114.0235 -75.76,75.4271 -173.43477,118.8475 -281.0876,124.9547 -19.42202,1.1018 -26.02798,1.0921 -46.5,-0.068 z m 61.5,-124.3427 c 88.53859,-10.9071 166.9451,-58.4023 217.1957,-131.5675 72.6419,-105.76708 71.2377,-248.26547 -3.4785,-353 -46.041,-64.53877 -116.70531,-109.61407 -193.52537,-123.44592 -22.46585,-4.04509 -32.51968,-4.92405 -56.69183,-4.95629 -32.86148,-0.0438 -57.13846,3.26832 -86.67753,11.82554 -58.03787,16.8131 -108.62695,49.46852 -148.23211,95.68433 -38.93695,45.43607 -63.14579,100.63145 -71.2257,162.39234 -2.32969,17.80762 -2.34347,57.1193 -0.0262,74.71606 11.31978,85.95875 53.10703,158.03213 121.66152,209.83804 42.45085,32.0797 98.644,53.9359 151.5,58.9255 6.05,0.5711 12.8,1.2175 15,1.4363 7.64874,0.7609 43.07121,-0.4404 54.5,-1.8484 z m 414,-675.5509 c -10.504,-1.32061 -18.8455,-3.84269 -29.5,-8.91945 -24.4844,-11.66658 -42.1988,-33.2377 -49.1782,-59.88503 -2.0602,-7.86596 -2.5483,-12.08823 -2.568,-22.21212 -0.051,-26.46558 8.7128,-47.69694 27.244,-66 41.9658,-41.44905 111.9539,-33.16019 142.7662,16.90814 26.08916,42.3935 13.90546,98.08456 -27.4345,125.40153 -17.2769,11.41639 -41.4312,17.20863 -61.3295,14.70693 z"
         id="path3002"
         inkscape:connector-curvature="0" />
      <path
         style="fill:#2e2e2e"
         d="m 93.57144,1294.5443 c -117.03333,-5.2144 -227.43651,-54.1222 -309.81324,-137.245 -35.82745,-36.152 -64.22821,-75.8937 -86.76537,-121.4126 -28.23359,-57.02407 -43.71957,-115.86647 -47.4159,-180.16737 -1.32031,-22.9678 -1.32031,-698.03224 0,-721 4.83055,-84.03156 30.54737,-161.34654 77.16877,-232 38.12453,-57.77668 94.12156,-110.30295 154.82574,-145.22948 64.88853,-37.33401 132.15847,-57.06786 208.99812,-61.31025 29.46915,-1.62702 719.60728,-0.79346 734.50188,0.88714 50.9273,5.7463 88.4246,14.70359 128.9271,30.79784 75.80906,30.12385 140.27576,77.66332 191.79796,141.437 52.06,64.43919 86.0408,142.50023 97.6916,224.41775 1.0951,7.7 2.5511,18.95 3.2355,25 1.6994,15.02372 2.5146,705.0064 0.8682,734.8303 -1.6062,29.0941 -4.8754,53.4291 -10.5861,78.7993 -39.2481,174.36307 -176.9507,312.00047 -351.43426,351.26777 -25.0301,5.633 -48.9007,8.9321 -76.5,10.5727 -14.9768,0.8903 -695.90317,1.2281 -715.5,0.3549 z m 734,-124.6243 c 68.1959,-10.2627 120.7311,-32.8225 172.49996,-74.0753 12.6219,-10.0579 39.7136,-37.1663 49.5948,-49.6254 41.7722,-52.66987 65.5916,-109.57957 74.0828,-176.99997 1.0749,-8.535 1.3224,-78.7151 1.3224,-375 0,-404.96862 0.5785,-368.91373 -6.4822,-404 -23.0053,-114.31831 -104.9742,-209.92501 -215.09286,-250.87931 -23.2706,-8.65459 -49.2215,-14.98853 -76.9249,-18.77535 -12.9172,-1.76568 -29.2131,-1.84534 -377.5,-1.84534 -296.39148,0 -365.95025,0.2463 -374.5,1.32607 -41.66352,5.2618 -75.39857,15.06699 -110.5,32.11715 -25.8667,12.56449 -43.44068,23.59419 -65.82971,41.31575 -11.69368,9.25588 -40.3464,37.58568 -49.53621,48.97792 -35.40667,43.89229 -59.43337,94.50047 -70.15187,147.76311 -7.06094,35.08742 -6.48221,-1.02652 -6.48221,404.5 0,347.8035 0.086,365.636 1.8259,378.5 5.46982,40.4417 15.9794,75.1706 33.28793,110 53.62869,107.91527 159.9434,179.32487 280.38617,188.33007 2.475,0.1851 167.4,0.2836 366.5,0.2189 337.7633,-0.1098 362.77,-0.2335 373.5,-1.8483 z m -417,-245.81687 c -51.1531,-4.529 -103.66794,-19.228 -150.25638,-42.057 C 145.41063,825.74143 60.69178,720.89053 30.58407,597.72351 20.7381,557.44484 17.1641,521.09643 18.71513,477.01388 21.40152,400.66276 45.44464,325.74735 88.2468,260.36166 c 27.23832,-41.60996 61.96516,-78.88728 100.87569,-108.2844 55.37733,-41.83789 121.43499,-70.43159 187.76259,-81.27488 28.3657,-4.63724 34.65293,-5.08305 71.68636,-5.08305 37.03343,0 43.32066,0.44581 71.68636,5.08305 91.25596,14.9186 179.86764,62.80663 243.17294,131.41695 21.4779,23.27771 45.1482,55.37568 59.3639,80.5 24.4572,43.22469 41.9687,92.24759 50.1879,140.5 6.8993,40.50296 7.6249,88.73208 1.9709,131 -14.3752,107.46544 -71.8353,208.0793 -158.3192,277.2202 -66.6036,53.2472 -147.11029,85.4306 -232.0628,92.7693 -13.52767,1.1686 -60.36339,1.1017 -74,-0.1057 z m 62.5,-121.9285 c 60.75944,-5.1854 113.98038,-25.6014 163.5,-62.7203 15.9206,-11.9337 44.8217,-41.0117 57.05,-57.39913 43.4063,-58.16969 64.9757,-125.61286 62.6315,-195.83587 -2.5148,-75.33461 -30.9425,-145.66379 -80.4377,-199 -46.41966,-50.02208 -102.55029,-81.42401 -168.7438,-94.40267 -19.88098,-3.89809 -32.78031,-5.00077 -58.5,-5.00077 -31.87255,0 -48.18412,1.97681 -78,9.45286 -65.77405,16.49222 -126.46165,57.07617 -167.91788,112.29262 -33.22774,44.25674 -53.38594,94.84208 -60.2363,151.15796 -1.97473,16.23407 -1.67343,56.66226 0.54406,73 4.9313,36.33216 14.37138,67.62925 29.68521,98.41657 15.94405,32.05434 32.16746,54.47109 58.35637,80.63413 18.99514,18.9764 32.09031,29.5826 52.89611,42.8423 55.02863,35.0702 124.23419,52.1042 189.17243,46.5623 z m 419.5687,-677.98636 c -22.2257,-4.64724 -42.2022,-17.05431 -55.1719,-34.26638 -14.5435,-19.30073 -20.6203,-40.27752 -18.7437,-64.70256 0.9084,-11.82436 3.1566,-19.848 8.8647,-31.63796 11.9214,-24.62359 33.4149,-42.21142 59.9236,-49.03471 13.6057,-3.50209 31.5419,-3.49415 45.196,0.02 32.6685,8.40781 58.061,33.77435 66.5086,66.44056 3.39696,13.13555 3.58476,30.63858 0.4678,43.58911 -5.262,21.86213 -19.2876,42.51746 -37.0712,54.59405 -7.6816,5.21653 -20.4482,11.27442 -28.5426,13.54385 -7.0047,1.96392 -34.3954,2.92521 -41.4313,1.45405 z"
         id="path3000"
         inkscape:connector-curvature="0" />
      <path
         style="fill:#000000"
         d="m 98.07144,1294.5638 c -116.15477,-4.0819 -224.95861,-50.4882 -307.89963,-131.3232 -39.79157,-38.7812 -70.12814,-80.5439 -94.08471,-129.5213 -28.34074,-57.94047 -43.36763,-116.91637 -46.50045,-182.49997 -1.318,-27.5916 -1.318,-684.40837 0,-712 4.81025,-100.69938 39.12712,-191.34271 102.40924,-270.5 13.998,-17.5096 47.64867,-51.73636 64.57555,-65.68107 74.02059,-60.97969 157.28717,-95.57101 254,-105.51888 16.50407,-1.69761 37.95927,-1.80005 377,-1.80005 381.1295,0 367.3677,-0.15797 401.8547,4.61286 81.0529,11.21263 158.93676,45.00982 224.64526,97.48327 20.9539,16.73338 54.8852,50.58972 71.0607,70.90387 56.3158,70.72455 89.6735,150.04144 99.8835,237.5 3.4722,29.74285 3.6743,54.52292 3.3109,406 -0.3936,380.6816 0.034,354.0076 -6.2922,393 -31.6222,194.92457 -186.4182,350.62147 -380.75176,382.96787 -41.5494,6.9158 -11.3106,6.4236 -402.2111,6.5466 -194.15,0.061 -356.6,-0.015 -361,-0.17 z m 730.5,-124.6449 c 83.8542,-12.6481 150.8579,-47.3379 206.67486,-107.0015 50.4792,-53.958 82.5637,-126.35547 89.2415,-201.37017 1.4732,-16.5491 1.5199,-715.87026 0.049,-732.3279 -0.5654,-6.325 -2.1761,-18.475 -3.5796,-27 -22.6921,-137.8423 -129.03876,-248.59041 -265.88576,-276.89006 -34.4991,-7.13433 1.7412,-6.5114 -399.5,-6.86701 -386.17538,-0.34225 -373.02896,-0.48302 -400.58741,4.28952 -34.56762,5.98639 -71.95821,18.54261 -101.07777,33.94316 -103.18677,54.5727 -170.91955,156.38641 -181.3001,272.52439 -0.68026,7.61073 -1.02904,131.65427 -1.0313,366.77844 -0.004,386.63516 -0.28384,366.34026 5.48738,397.56486 16.62687,89.9579 67.92064,168.53267 143.54779,219.89487 41.25351,28.0173 86.29494,46.0721 135.24837,54.214 8.36717,1.3917 19.48804,2.9263 24.71304,3.4104 5.30217,0.4912 170.12239,0.812 373,0.7259 339.4061,-0.1441 364.2623,-0.2693 375,-1.8889 z m -416,-245.78837 C 311.5991,915.48083 216.62093,871.15713 144.69156,799.11803 75.38239,729.70323 33.16809,642.77188 20.91149,544.21933 c -2.57995,-20.74481 -2.57995,-77.25519 0,-98 14.98459,-120.48772 76.01035,-225.53529 172.65995,-297.2107 60.0955,-44.56686 128.3914,-71.61107 205.5,-81.37511 16.71801,-2.11695 63.43682,-2.97296 82.06859,-1.5037 120.14191,9.47408 228.94691,67.40013 304.32621,162.01838 49.2876,61.86732 79.5877,133.95394 90.3268,214.89551 1.9286,14.53595 2.2124,21.23068 2.2124,52.17562 0,37.6218 -1.1525,51.7559 -6.4969,79.67562 -21.5495,112.57671 -87.0821,211.90648 -182.4846,276.59768 -61.65891,41.81 -131.37691,66.4187 -205.9525,72.696 -13.88144,1.1684 -56.59254,1.1332 -70.5,-0.058 z m 79.5,-123.9028 c 34.92543,-5.2697 64.73342,-14.6029 95.30317,-29.8406 81.26363,-40.5063 140.93653,-116.43255 161.24783,-205.1678 6.0294,-26.34099 7.3316,-38.79298 7.3202,-70 -0.011,-30.90227 -1.2807,-43.47205 -6.9407,-68.72247 C 723.25134,311.61735 632.1456,220.54947 517.17181,194.76295 c -25.13627,-5.63761 -37.72341,-6.90447 -68.60037,-6.90447 -30.87696,0 -43.4641,1.26686 -68.60037,6.90447 -85.50527,19.17727 -159.31879,74.85049 -201.88441,152.26961 -35.53734,64.63597 -46.42341,143.43383 -29.95794,216.84803 9.21681,41.09482 28.03814,81.8977 53.45484,115.88513 52.3615,70.01821 130.91989,113.87951 219.2759,122.42761 15.81226,1.5298 55.26317,0.4409 71.21198,-1.9656 z m 399.5,-676.50177 c -34.4435,-7.70097 -60.3638,-32.13625 -70.2425,-66.21813 -1.9536,-6.73986 -2.2492,-10.01005 -2.1958,-24.2885 0.056,-14.97697 0.3104,-17.3112 2.7567,-25.28832 9.6368,-31.4246 33.537,-54.57817 65.3274,-63.28645 8.0446,-2.20363 28.4961,-2.99938 37.9385,-1.47615 21.7683,3.5116 42.2816,15.44169 56.1198,32.63797 13.7765,17.11966 20.29586,35.55446 20.29586,57.39036 0,25.15843 -8.22516,45.92946 -25.18196,63.59211 -12.1602,12.66629 -25.3118,20.65739 -41.9916,25.5146 -9.6428,2.808 -33.139,3.58844 -42.8264,1.42251 z"
         id="path2998"
         inkscape:connector-curvature="0" />
    </g>
  </g>
</svg>
