<?xml version="1.0" encoding="UTF-8" standalone="no"?>
<!-- Created with Inkscape (http://www.inkscape.org/) -->

<svg
   xmlns:dc="http://purl.org/dc/elements/1.1/"
   xmlns:cc="http://creativecommons.org/ns#"
   xmlns:rdf="http://www.w3.org/1999/02/22-rdf-syntax-ns#"
   xmlns:svg="http://www.w3.org/2000/svg"
   xmlns="http://www.w3.org/2000/svg"
   xmlns:sodipodi="http://sodipodi.sourceforge.net/DTD/sodipodi-0.dtd"
   xmlns:inkscape="http://www.inkscape.org/namespaces/inkscape"
   width="24"
   height="24"
   id="svg3015"
   version="1.1"
   inkscape:version="0.48.5 r10040"
   sodipodi:docname="New document 5">
  <defs
     id="defs3017" />
  <sodipodi:namedview
     id="base"
     pagecolor="#ffffff"
     bordercolor="#666666"
     borderopacity="1.0"
     inkscape:pageopacity="0.0"
     inkscape:pageshadow="2"
     inkscape:zoom="27.708333"
     inkscape:cx="12"
     inkscape:cy="12"
     inkscape:document-units="px"
     inkscape:current-layer="layer1"
     showgrid="false"
     inkscape:window-width="1440"
     inkscape:window-height="851"
     inkscape:window-x="0"
     inkscape:window-y="1"
     inkscape:window-maximized="1" />
  <metadata
     id="metadata3020">
    <rdf:RDF>
      <cc:Work
         rdf:about="">
        <dc:format>image/svg+xml</dc:format>
        <dc:type
           rdf:resource="http://purl.org/dc/dcmitype/StillImage" />
        <dc:title></dc:title>
      </cc:Work>
    </rdf:RDF>
  </metadata>
  <g
     inkscape:label="Layer 1"
     inkscape:groupmode="layer"
     id="layer1"
     transform="translate(0,-1028.3622)">
    <path
       style="fill:#000000"
       d="m 0.34370949,1051.8048 c -0.0144,-0.014 -0.0262,-3.502 -0.0262,-7.75 l 0,-7.7238 2.55710001,0 2.5571,0 0,7.75 0,7.75 -2.53087,0 c -1.39198,0 -2.54268001,-0.012 -2.55710001,-0.026 z m 7.96906001,-7.7238 0.0104,-7.7505 2.5570895,0.01 2.5571,0.01 0.0105,1.0813 0.0105,1.0813 0.14832,-0.2233 c 0.27019,-0.4069 0.81174,-0.9875 1.19171,-1.2777 0.38567,-0.2946 0.9884,-0.6208 1.3928,-0.7537 0.97806,-0.3216 2.2399,-0.367 3.3677,-0.1212 2.24278,0.4888 3.75071,2.1643 4.24603,4.7177 0.18395,0.9483 0.19358,1.2586 0.19444,6.2652 l 6.7e-4,4.7112 -2.56694,-0.01 -2.56693,-0.01 -0.0222,-4.6028 c -0.0238,-4.9294 -0.0149,-4.708 -0.21702,-5.4076 -0.23924,-0.8279 -0.86492,-1.4717 -1.62944,-1.6764 -0.3452,-0.092 -1.10416,-0.092 -1.45244,3e-4 -0.92263,0.2453 -1.66759,0.9916 -2.01693,2.0206 -0.0381,0.1124 -0.0542,1.2328 -0.0702,4.9058 l -0.0207,4.7601 -2.56749,0.01 -2.5674895,0.01 0.0104,-7.7505 z m -6.18565,-9.9298 c -1.66525001,-0.3988 -2.53319001,-1.9974 -1.94114001,-3.5752 0.39198,-1.0446 1.42222001,-1.6822 2.71961001,-1.6831 0.91562,-7e-4 1.54261,0.2347 2.09668,0.7872 0.36969,0.3686 0.55867,0.7 0.68645,1.2037 0.35883,1.4146 -0.36,2.7087 -1.77164,3.1897 -0.28252,0.096 -0.37911,0.1084 -0.94416,0.1184 -0.42164,0.01 -0.70086,-0.01 -0.8458,-0.041 z"
       id="path3049"
       inkscape:connector-curvature="0" />
  </g>
</svg>
