<?xml version="1.0" encoding="UTF-8" standalone="no"?>
<!-- Created with Inkscape (http://www.inkscape.org/) -->

<svg
   xmlns:dc="http://purl.org/dc/elements/1.1/"
   xmlns:cc="http://creativecommons.org/ns#"
   xmlns:rdf="http://www.w3.org/1999/02/22-rdf-syntax-ns#"
   xmlns:svg="http://www.w3.org/2000/svg"
   xmlns="http://www.w3.org/2000/svg"
   xmlns:sodipodi="http://sodipodi.sourceforge.net/DTD/sodipodi-0.dtd"
   xmlns:inkscape="http://www.inkscape.org/namespaces/inkscape"
   width="24"
   height="24"
   id="svg2996"
   version="1.1"
   inkscape:version="0.48.5 r10040"
   sodipodi:docname="New document 3">
  <defs
     id="defs2998" />
  <sodipodi:namedview
     id="base"
     pagecolor="#ffffff"
     bordercolor="#666666"
     borderopacity="1.0"
     inkscape:pageopacity="0.0"
     inkscape:pageshadow="2"
     inkscape:zoom="27.708333"
     inkscape:cx="12"
     inkscape:cy="12"
     inkscape:document-units="px"
     inkscape:current-layer="layer1"
     showgrid="false"
     inkscape:window-width="1440"
     inkscape:window-height="851"
     inkscape:window-x="0"
     inkscape:window-y="1"
     inkscape:window-maximized="1" />
  <metadata
     id="metadata3001">
    <rdf:RDF>
      <cc:Work
         rdf:about="">
        <dc:format>image/svg+xml</dc:format>
        <dc:type
           rdf:resource="http://purl.org/dc/dcmitype/StillImage" />
        <dc:title></dc:title>
      </cc:Work>
    </rdf:RDF>
  </metadata>
  <g
     inkscape:label="Layer 1"
     inkscape:groupmode="layer"
     id="layer1"
     transform="translate(0,-1028.3622)">
    <path
       style="fill:#000000"
       d="m 6.8146006,1050.1418 c -0.39694,-0.017 -1.31177,-0.1252 -1.81887,-0.2158 -1.55665,-0.278 -3.22042,-0.904 -4.63305,-1.7431 L 1.0596305e-5,1047.9675 0.8964806,1047.985 c 0.68468,0.013 1.01323,0 1.39072,-0.047 1.76282,-0.2302 3.15914,-0.7647 4.58346,-1.7544 0.42079,-0.2924 0.4202,-0.2951 -0.0742,-0.3397 -0.58623,-0.053 -1.19207,-0.2428 -1.78147,-0.5583 -0.94421,-0.5055 -1.74178,-1.3723 -2.18277,-2.3725 -0.0575,-0.1305 -0.11681,-0.2867 -0.13173,-0.3472 l -0.0271,-0.1099 0.17263,0.031 c 0.33864,0.061 1.37512,0.031 1.71472,-0.048 l 0.31633,-0.074 -0.19771,-0.046 c -1.14351,-0.2649 -2.27744,-1.0699 -2.93395,-2.0829 -0.37617,-0.5804 -0.67409,-1.348 -0.76385,-1.9683 -0.0403,-0.2788 -0.0518,-0.7909 -0.0177,-0.7909 0.0116,0 0.10834,0.044 0.21497,0.098 0.47137,0.2388 1.1257,0.421 1.70144,0.4737 l 0.25701,0.024 -0.13741,-0.1099 c -1.34965,-1.0798 -2.01755,-2.4072 -2.01755,-4.0096 0,-0.8061 0.16507,-1.5181 0.51064,-2.2027 0.0692,-0.1371 0.13952,-0.2436 0.15625,-0.2367 0.0167,0.01 0.16267,0.1637 0.3243,0.3484 1.69644,1.9389 3.97961,3.4175 6.44244,4.1723 0.90746,0.2781 2.2136104,0.5244 3.1186904,0.5881 l 0.29154,0.021 -0.0254,-0.1464 c -0.3007,-1.7318 0.19413,-3.3184 1.41106,-4.5245 0.99729,-0.9883 2.51078,-1.527 3.88035,-1.3811 1.14915,0.1225 2.04952,0.5171 2.87677,1.2607 l 0.30369,0.273 0.42781,-0.1047 c 0.80747,-0.1976 1.59878,-0.499 2.29112,-0.8725 0.19841,-0.107 0.37111,-0.1946 0.38376,-0.1946 0.081,0 -0.29918,0.7907 -0.59132,1.23 -0.27872,0.419 -0.879,1.0328 -1.25284,1.2811 -0.12439,0.083 -0.21797,0.1583 -0.20796,0.1683 0.01,0.01 0.13929,-0 0.28727,-0.027 0.73635,-0.123 1.46664,-0.3225 2.06114,-0.5631 0.15924,-0.064 0.3053,-0.1117 0.32457,-0.105 0.0449,0.016 -0.31564,0.4961 -0.7434,0.9906 -0.38425,0.4442 -0.78859,0.8304 -1.28273,1.2249 l -0.34754,0.2776 0,0.5628 c 0,3.1185 -1.10986,6.3644 -3.02204,8.8383 -0.72769,0.9414 -1.69822,1.9104 -2.57566,2.5715 -1.21237,0.9134 -2.41533,1.549 -3.81296,2.0145 -1.73087,0.5766 -3.4443704,0.8067 -5.3972904,0.7249 z"
       id="path3047"
       inkscape:connector-curvature="0" />
  </g>
</svg>
